<svg width="240" height="240" viewBox="0 0 240 240" fill="none" xmlns="http://www.w3.org/2000/svg">
<path d="M192.118 0H47.8823C21.4376 0 0 21.4376 0 47.8823V192.118C0 218.562 21.4376 240 47.8823 240H192.118C218.562 240 240 218.562 240 192.118V47.8823C240 21.4376 218.562 0 192.118 0Z" fill="#457FC1"/>
<path d="M124.664 119.995C124.664 102.358 137.951 88.0735 158.341 88.0735C178.731 88.0735 192.018 102.308 192.018 119.995C192.018 137.682 178.741 151.917 158.341 151.917C137.941 151.917 124.664 137.692 124.664 119.995ZM175.539 119.995C175.539 110.798 168.985 102.448 158.361 102.448C147.737 102.448 141.193 110.798 141.193 119.995C141.193 129.192 147.647 137.741 158.361 137.741C169.074 137.741 175.519 129.152 175.519 119.995H175.539Z" fill="#FFCE39"/>
<path d="M107.576 98.9368L94.6074 108.224C93.1018 106.422 91.2141 104.977 89.081 103.994C86.7382 102.919 84.187 102.374 81.6094 102.398H80.6118C71.4344 102.658 64.9005 109.381 64.4915 118.898V118.997C64.4915 119.323 64.4915 119.656 64.4915 119.995C64.4915 120.414 64.4915 120.833 64.5414 121.242C64.5431 121.462 64.5598 121.682 64.5912 121.9C64.5912 122.12 64.5912 122.339 64.6611 122.559C64.7687 123.416 64.9286 124.265 65.1399 125.102C65.1342 125.129 65.1342 125.156 65.1399 125.182C66.9455 132.225 72.442 137.592 80.542 137.731C72.6444 139.674 64.3831 139.581 56.5311 137.462L55.2542 137.113L53.9674 136.734C53.5284 136.604 53.0995 136.465 52.6606 136.315L52.1718 136.155C51.2288 134.52 50.4407 132.8 49.8175 131.018C49.6579 130.569 49.5083 130.12 49.3687 129.661C49.229 129.202 49.1093 128.773 48.9996 128.325C48.9497 128.115 48.8898 127.896 48.8499 127.676C48.7402 127.257 48.6504 126.838 48.5706 126.409C48.4908 125.98 48.4011 125.472 48.3412 124.993C48.3364 124.9 48.3364 124.806 48.3412 124.713C48.2893 124.42 48.2527 124.123 48.2315 123.826C48.2315 123.626 48.2314 123.417 48.1616 123.207C48.1616 122.818 48.0918 122.429 48.0818 122.04C48.0719 121.651 48.0818 121.511 48.0818 121.252C48.0818 120.833 48.0818 120.414 48.0818 119.995V119.905C48.0818 119.386 48.0818 118.908 48.0818 118.349C48.0818 117.79 48.1417 117.272 48.1915 116.733C49.5283 102.767 59.3641 91.515 74.4171 88.8017L75.1752 88.672L76.2326 88.5124L76.7813 88.4526H77.0706L78.1679 88.3428C79.325 88.2431 80.5121 88.1932 81.7191 88.1932C92.7221 88.0735 101.7 92.2732 107.576 98.9368Z" fill="#FFCE39"/>
<path d="M116.424 117.601V146.929H104.942V139.417C104.112 140.474 103.18 141.446 102.159 142.32C101.289 143.078 100.373 143.781 99.4156 144.425C97.5157 145.727 95.5142 146.875 93.4303 147.857C86.9861 150.919 79.9235 152.346 72.9606 150.999C71.587 150.745 70.2359 150.382 68.9205 149.911C61.8475 147.484 55.8938 142.576 52.1617 136.095H52.2116L52.7004 136.255C53.1393 136.405 53.5683 136.544 54.0072 136.674C54.4461 136.804 54.8651 136.933 55.2941 137.053C55.723 137.173 56.142 137.303 56.5709 137.402C64.423 139.521 72.6842 139.614 80.5819 137.672H80.6916H80.8113C83.9283 136.884 86.9416 135.732 89.7892 134.24L90.4476 133.891C90.7369 133.731 91.0162 133.572 91.2856 133.402L91.4552 133.292L92.0337 132.933L92.722 132.464L92.9215 132.325C94.2273 131.393 95.4311 130.327 96.5127 129.143H87.0759V117.601H116.424Z" fill="white"/>
</svg>
