<svg width="1080" height="1080" viewBox="0 0 1080 1080" fill="none" xmlns="http://www.w3.org/2000/svg">
<g clip-path="url(#clip0_3055_59707)">
<path d="M1080 0H0V1080H1080V0Z" fill="#FFCE39"/>
<path d="M55.8001 128.1V179H35.9001V165.9C34.5001 167.7 32.9001 169.3 31.1001 170.9C29.7001 172.2 28.1001 173.4 26.3001 174.6C23.2001 176.7 19.8001 178.7 15.8001 180.6C4.60009 185.9 -7.69991 188.4 -19.7999 186.1C-22.0999 185.7 -24.4999 185 -26.7999 184.2C-38.9999 179.9 -49.4999 171.6 -55.8999 160.2H-55.7999L-54.9999 160.5C-54.1999 160.8 -53.4999 161 -52.6999 161.2C-51.9999 161.4 -51.1999 161.6 -50.4999 161.9C-49.7999 162.1 -48.9999 162.3 -48.2999 162.5C-31.3999 166.6 -17.1999 165.7 -6.5999 163C-6.4999 163 -6.4999 163 -6.3999 163C-6.2999 163 -6.2999 163 -6.1999 162.9C0.500099 161.2 5.8001 158.8 9.4001 156.9C9.8001 156.7 10.2001 156.5 10.5001 156.3C11.0001 156 11.5001 155.8 12.0001 155.5C12.1001 155.4 12.2001 155.4 12.3001 155.3C12.7001 155.1 13.0001 154.9 13.3001 154.7C13.8001 154.4 14.2001 154.1 14.5001 153.9C14.7001 153.8 14.8001 153.7 14.8001 153.7H14.9001C17.2001 152.1 19.3001 150.2 21.1001 148.2H4.9001V128.1H55.8001Z" fill="white"/>
<path d="M55.8001 398.1V449H35.9001V436C34.5001 437.8 32.9001 439.4 31.1001 441C29.7001 442.3 28.1001 443.5 26.3001 444.7C23.2001 446.8 19.8001 448.8 15.8001 450.7C4.60009 456 -7.69991 458.5 -19.7999 456.2C-22.0999 455.8 -24.4999 455.1 -26.7999 454.3C-38.9999 450 -49.4999 441.7 -55.8999 430.3H-55.7999L-54.9999 430.6C-54.1999 430.9 -53.4999 431.1 -52.6999 431.3C-51.9999 431.5 -51.1999 431.7 -50.4999 432C-49.7999 432.2 -48.9999 432.4 -48.2999 432.6C-31.3999 436.7 -17.1999 435.8 -6.5999 433.1C-6.4999 433.1 -6.4999 433.1 -6.3999 433.1C-6.2999 433.1 -6.2999 433.1 -6.1999 433C0.500099 431.3 5.8001 428.9 9.4001 427C9.8001 426.8 10.2001 426.6 10.5001 426.4C11.0001 426.1 11.5001 425.9 12.0001 425.6C12.1001 425.5 12.2001 425.5 12.3001 425.4C12.7001 425.2 13.0001 425 13.3001 424.8C13.8001 424.5 14.2001 424.2 14.5001 424C14.7001 423.9 14.8001 423.8 14.8001 423.8H14.9001C17.2001 422.2 19.3001 420.3 21.1001 418.3H4.9001V398.1H55.8001Z" fill="white"/>
<path d="M55.8001 668.1V719H35.9001V705.9C34.5001 707.7 32.9001 709.3 31.1001 710.9C29.7001 712.2 28.1001 713.4 26.3001 714.6C23.2001 716.7 19.8001 718.7 15.8001 720.6C4.60009 725.9 -7.69991 728.4 -19.7999 726.1C-22.0999 725.7 -24.4999 725 -26.7999 724.2C-38.9999 719.9 -49.4999 711.6 -55.8999 700.2H-55.7999L-54.9999 700.5C-54.1999 700.8 -53.4999 701 -52.6999 701.2C-51.9999 701.4 -51.1999 701.6 -50.4999 701.9C-49.7999 702.1 -48.9999 702.3 -48.2999 702.5C-31.3999 706.6 -17.1999 705.7 -6.5999 703C-6.4999 703 -6.4999 703 -6.3999 703C-6.2999 703 -6.2999 703 -6.1999 702.9C0.500099 701.2 5.8001 698.8 9.4001 696.9C9.8001 696.7 10.2001 696.5 10.5001 696.3C11.0001 696 11.5001 695.8 12.0001 695.5C12.1001 695.4 12.2001 695.4 12.3001 695.3C12.7001 695.1 13.0001 694.9 13.3001 694.7C13.8001 694.4 14.2001 694.1 14.5001 693.9C14.7001 693.8 14.8001 693.7 14.8001 693.7H14.9001C17.2001 692.1 19.3001 690.2 21.1001 688.2H4.9001V668.1H55.8001Z" fill="white"/>
<path d="M55.8001 938.1V989H35.9001V976C34.5001 977.8 32.9001 979.4 31.1001 981C29.7001 982.3 28.1001 983.5 26.3001 984.7C23.2001 986.8 19.8001 988.8 15.8001 990.7C4.60009 996 -7.69991 998.5 -19.7999 996.2C-22.0999 995.8 -24.4999 995.1 -26.7999 994.3C-38.9999 990 -49.4999 981.7 -55.8999 970.3H-55.7999L-54.9999 970.6C-54.1999 970.9 -53.4999 971.1 -52.6999 971.3C-51.9999 971.5 -51.1999 971.8 -50.4999 972C-49.7999 972.2 -48.9999 972.4 -48.2999 972.6C-31.3999 976.9 -17.1999 975.8 -6.5999 973.1C-6.4999 973.1 -6.4999 973.1 -6.3999 973.1C-6.2999 973.1 -6.2999 973.1 -6.1999 973C0.500099 971.3 5.8001 968.9 9.4001 967C9.8001 966.8 10.2001 966.6 10.5001 966.4C11.0001 966.1 11.5001 965.8 12.0001 965.6C12.1001 965.5 12.2001 965.5 12.3001 965.4C12.7001 965.2 13.0001 965 13.3001 964.8C13.8001 964.5 14.2001 964.2 14.5001 964C14.7001 963.9 14.8001 963.8 14.8001 963.8H14.9001C17.2001 962.2 19.3001 960.3 21.1001 958.3H4.9001V938.1H55.8001Z" fill="white"/>
<path d="M-55.8999 4.4003V-46.4997H-35.9999V-33.3997C-34.5999 -35.1997 -32.9999 -36.7997 -31.1999 -38.3997C-29.7999 -39.6997 -28.1999 -40.8997 -26.3999 -42.0997C-23.2999 -44.1997 -19.8999 -46.1997 -15.8999 -48.0997C-4.6999 -53.3997 7.6001 -55.8997 19.7001 -53.5997C22.0001 -53.1997 24.4001 -52.4997 26.7001 -51.6997C38.9001 -47.3997 49.4001 -39.0997 55.8001 -27.6997H55.7001L54.9001 -27.9997C54.1001 -28.2997 53.4001 -28.4997 52.6001 -28.6997C51.9001 -28.8997 51.1001 -29.1997 50.4001 -29.3997C49.7001 -29.5997 48.9001 -29.7997 48.2001 -29.9997C31.3001 -34.2997 17.1001 -33.1997 6.5001 -30.4997C6.4001 -30.4997 6.4001 -30.4997 6.3001 -30.4997C6.2001 -30.4997 6.2001 -30.4997 6.1001 -30.3997C-0.599903 -28.6997 -5.8999 -26.2997 -9.4999 -24.3997C-9.8999 -24.1997 -10.2999 -23.9997 -10.5999 -23.7997C-11.0999 -23.4997 -11.5999 -23.1997 -12.0999 -22.9997C-12.1999 -22.8997 -12.2999 -22.8997 -12.3999 -22.7997C-12.7999 -22.5997 -13.0999 -22.3997 -13.3999 -22.1997C-13.8999 -21.8997 -14.2999 -21.5997 -14.5999 -21.3997C-14.7999 -21.2997 -14.8999 -21.1997 -14.8999 -21.1997H-14.9999C-17.2999 -19.5997 -19.3999 -17.6997 -21.1999 -15.6997H-4.8999V4.20031H-55.8999V4.4003Z" fill="#457FC1"/>
<path d="M-55.8999 274.4V223.5H-35.9999V236.6C-34.5999 234.8 -32.9999 233.2 -31.1999 231.6C-29.7999 230.3 -28.1999 229.1 -26.3999 227.9C-23.2999 225.8 -19.8999 223.8 -15.8999 221.9C-4.6999 216.6 7.6001 214.1 19.7001 216.4C22.0001 216.8 24.4001 217.5 26.7001 218.3C38.9001 222.6 49.4001 230.9 55.8001 242.3H55.7001L54.9001 242C54.1001 241.7 53.4001 241.5 52.6001 241.3C51.9001 241.1 51.1001 240.9 50.4001 240.6C49.7001 240.4 48.9001 240.2 48.2001 240C31.3001 235.9 17.1001 236.8 6.5001 239.5C6.4001 239.5 6.4001 239.5 6.3001 239.5C6.2001 239.5 6.2001 239.5 6.1001 239.6C-0.599903 241.3 -5.8999 243.7 -9.4999 245.6C-9.8999 245.8 -10.2999 246 -10.5999 246.2C-11.0999 246.5 -11.5999 246.7 -12.0999 247C-12.1999 247.1 -12.2999 247.1 -12.3999 247.2C-12.7999 247.4 -13.0999 247.6 -13.3999 247.8C-13.8999 248.1 -14.2999 248.4 -14.5999 248.6C-14.7999 248.7 -14.8999 248.8 -14.8999 248.8H-14.9999C-17.2999 250.4 -19.3999 252.3 -21.1999 254.3H-4.8999V274.2H-55.8999V274.4Z" fill="#457FC1"/>
<path d="M-55.8999 544.4V493.5H-35.9999V506.5C-34.5999 504.7 -32.9999 503.1 -31.1999 501.5C-29.7999 500.2 -28.1999 499 -26.3999 497.8C-23.2999 495.7 -19.8999 493.7 -15.8999 491.8C-4.6999 486.5 7.6001 484 19.7001 486.3C22.0001 486.7 24.4001 487.4 26.7001 488.2C38.9001 492.5 49.4001 500.8 55.8001 512.2H55.7001L54.9001 511.9C54.1001 511.6 53.4001 511.4 52.6001 511.2C51.9001 511 51.1001 510.8 50.4001 510.5C49.7001 510.3 48.9001 510.1 48.2001 509.9C31.3001 505.8 17.1001 506.7 6.5001 509.4C6.4001 509.4 6.4001 509.4 6.3001 509.4C6.2001 509.4 6.2001 509.4 6.1001 509.5C-0.599903 511.2 -5.8999 513.6 -9.4999 515.5C-9.8999 515.7 -10.2999 515.9 -10.5999 516.1C-11.0999 516.4 -11.5999 516.6 -12.0999 516.9C-12.1999 517 -12.2999 517 -12.3999 517.1C-12.7999 517.3 -13.0999 517.5 -13.3999 517.7C-13.8999 518 -14.2999 518.3 -14.5999 518.5C-14.7999 518.6 -14.8999 518.7 -14.8999 518.7H-14.9999C-17.2999 520.3 -19.3999 522.2 -21.1999 524.2H-4.8999V544.1H-55.8999V544.4Z" fill="#457FC1"/>
<path d="M-55.8999 814.4V763.5H-35.9999V776.5C-34.5999 774.7 -32.9999 773.1 -31.1999 771.5C-29.7999 770.2 -28.1999 769 -26.3999 767.8C-23.2999 765.7 -19.8999 763.7 -15.8999 761.8C-4.6999 756.5 7.6001 754 19.7001 756.3C22.0001 756.7 24.4001 757.4 26.7001 758.2C38.9001 762.5 49.4001 770.8 55.8001 782.2H55.7001L54.9001 781.9C54.1001 781.6 53.4001 781.4 52.6001 781.2C51.9001 781 51.1001 780.8 50.4001 780.5C49.7001 780.3 48.9001 780.1 48.2001 779.9C31.3001 775.8 17.1001 776.7 6.5001 779.4C6.4001 779.4 6.4001 779.4 6.3001 779.4C6.2001 779.4 6.2001 779.4 6.1001 779.5C-0.599903 781.2 -5.8999 783.6 -9.4999 785.5C-9.8999 785.7 -10.2999 785.9 -10.5999 786.1C-11.0999 786.4 -11.5999 786.6 -12.0999 786.9C-12.1999 787 -12.2999 787 -12.3999 787.1C-12.7999 787.3 -13.0999 787.5 -13.3999 787.7C-13.8999 788 -14.2999 788.3 -14.5999 788.5C-14.7999 788.6 -14.8999 788.7 -14.8999 788.7H-14.9999C-17.2999 790.3 -19.3999 792.2 -21.1999 794.2H-4.8999V814.1H-55.8999V814.4Z" fill="#457FC1"/>
<path d="M-55.8999 1084.4V1033.5H-35.9999V1046.6C-34.5999 1044.8 -32.9999 1043.2 -31.1999 1041.6C-29.7999 1040.3 -28.1999 1039.1 -26.3999 1037.9C-23.2999 1035.8 -19.8999 1033.8 -15.8999 1031.9C-4.6999 1026.6 7.6001 1024.1 19.7001 1026.4C22.0001 1026.8 24.4001 1027.5 26.7001 1028.3C38.9001 1032.6 49.4001 1040.9 55.8001 1052.3H55.7001L54.9001 1052C54.1001 1051.7 53.4001 1051.5 52.6001 1051.3C51.9001 1051.1 51.1001 1050.8 50.4001 1050.6C49.7001 1050.4 48.9001 1050.2 48.2001 1050C31.3001 1045.7 17.1001 1046.8 6.5001 1049.5C6.4001 1049.5 6.4001 1049.5 6.3001 1049.5C6.2001 1049.5 6.2001 1049.5 6.1001 1049.6C-0.599903 1051.3 -5.8999 1053.7 -9.4999 1055.6C-9.8999 1055.8 -10.2999 1056 -10.5999 1056.2C-11.0999 1056.5 -11.5999 1056.8 -12.0999 1057C-12.1999 1057.1 -12.2999 1057.1 -12.3999 1057.2C-12.7999 1057.4 -13.0999 1057.6 -13.3999 1057.8C-13.8999 1058.1 -14.2999 1058.4 -14.5999 1058.6C-14.7999 1058.7 -14.8999 1058.8 -14.8999 1058.8H-14.9999C-17.2999 1060.4 -19.3999 1062.3 -21.1999 1064.3H-4.8999V1084.2H-55.8999V1084.4Z" fill="#457FC1"/>
<path d="M595.8 128.1V179H575.9V165.9C574.5 167.7 572.9 169.3 571.1 170.9C569.7 172.2 568.1 173.4 566.3 174.6C563.2 176.7 559.8 178.7 555.8 180.6C544.6 185.9 532.3 188.4 520.2 186.1C517.9 185.7 515.5 185 513.2 184.2C501 179.9 490.5 171.6 484.1 160.2H484.2L485 160.5C485.8 160.8 486.5 161 487.3 161.2C488 161.4 488.8 161.6 489.5 161.9C490.2 162.1 491 162.3 491.7 162.5C508.6 166.6 522.8 165.7 533.4 163C533.5 163 533.5 163 533.6 163C533.7 163 533.7 163 533.8 162.9C540.5 161.2 545.8 158.8 549.4 156.9C549.8 156.7 550.2 156.5 550.5 156.3C551 156 551.5 155.8 552 155.5C552.1 155.4 552.2 155.4 552.3 155.3C552.7 155.1 553 154.9 553.3 154.7C553.8 154.4 554.2 154.1 554.5 153.9C554.7 153.8 554.8 153.7 554.8 153.7H554.9C557.2 152.1 559.3 150.2 561.1 148.2H544.8V128.1H595.8Z" fill="white"/>
<path d="M595.8 398.1V449H575.9V436C574.5 437.8 572.9 439.4 571.1 441C569.7 442.3 568.1 443.5 566.3 444.7C563.2 446.8 559.8 448.8 555.8 450.7C544.6 456 532.3 458.5 520.2 456.2C517.9 455.8 515.5 455.1 513.2 454.3C501 450 490.5 441.7 484.1 430.3H484.2L485 430.6C485.8 430.9 486.5 431.1 487.3 431.3C488 431.5 488.8 431.7 489.5 432C490.2 432.2 491 432.4 491.7 432.6C508.6 436.7 522.8 435.8 533.4 433.1C533.5 433.1 533.5 433.1 533.6 433.1C533.7 433.1 533.7 433.1 533.8 433C540.5 431.3 545.8 428.9 549.4 427C549.8 426.8 550.2 426.6 550.5 426.4C551 426.1 551.5 425.9 552 425.6C552.1 425.5 552.2 425.5 552.3 425.4C552.7 425.2 553 425 553.3 424.8C553.8 424.5 554.2 424.2 554.5 424C554.7 423.9 554.8 423.8 554.8 423.8H554.9C557.2 422.2 559.3 420.3 561.1 418.3H544.8V398.1H595.8Z" fill="white"/>
<path d="M595.8 668.1V719H575.9V705.9C574.5 707.7 572.9 709.3 571.1 710.9C569.7 712.2 568.1 713.4 566.3 714.6C563.2 716.7 559.8 718.7 555.8 720.6C544.6 725.9 532.3 728.4 520.2 726.1C517.9 725.7 515.5 725 513.2 724.2C501 719.9 490.5 711.6 484.1 700.2H484.2L485 700.5C485.8 700.8 486.5 701 487.3 701.2C488 701.4 488.8 701.6 489.5 701.9C490.2 702.1 491 702.3 491.7 702.5C508.6 706.6 522.8 705.7 533.4 703C533.5 703 533.5 703 533.6 703C533.7 703 533.7 703 533.8 702.9C540.5 701.2 545.8 698.8 549.4 696.9C549.8 696.7 550.2 696.5 550.5 696.3C551 696 551.5 695.8 552 695.5C552.1 695.4 552.2 695.4 552.3 695.3C552.7 695.1 553 694.9 553.3 694.7C553.8 694.4 554.2 694.1 554.5 693.9C554.7 693.8 554.8 693.7 554.8 693.7H554.9C557.2 692.1 559.3 690.2 561.1 688.2H544.8V668.1H595.8Z" fill="white"/>
<path d="M595.8 938.1V989H575.9V976C574.5 977.8 572.9 979.4 571.1 981C569.7 982.3 568.1 983.5 566.3 984.7C563.2 986.8 559.8 988.8 555.8 990.7C544.6 996 532.3 998.5 520.2 996.2C517.9 995.8 515.5 995.1 513.2 994.3C501 990 490.5 981.7 484.1 970.3H484.2L485 970.6C485.8 970.9 486.5 971.1 487.3 971.3C488 971.5 488.8 971.7 489.5 972C490.2 972.2 491 972.4 491.7 972.6C508.6 976.7 522.8 975.8 533.4 973.1C533.5 973.1 533.5 973.1 533.6 973.1C533.7 973.1 533.7 973.1 533.8 973C540.5 971.3 545.8 968.9 549.4 967C549.8 966.8 550.2 966.6 550.5 966.4C551 966.1 551.5 965.9 552 965.6C552.1 965.5 552.2 965.5 552.3 965.4C552.7 965.2 553 965 553.3 964.8C553.8 964.5 554.2 964.2 554.5 964C554.7 963.9 554.8 963.8 554.8 963.8H554.9C557.2 962.2 559.3 960.3 561.1 958.3H544.8V938.1H595.8Z" fill="white"/>
<path d="M484.1 4.4003V-46.4997H504V-33.3997C505.4 -35.1997 507 -36.7997 508.8 -38.3997C510.2 -39.6997 511.8 -40.8997 513.6 -42.0997C516.7 -44.1997 520.1 -46.1997 524.1 -48.0997C535.3 -53.3997 547.6 -55.8997 559.7 -53.5997C562 -53.1997 564.4 -52.4997 566.7 -51.6997C578.9 -47.3997 589.4 -39.0997 595.8 -27.6997H595.7L594.9 -27.9997C594.1 -28.2997 593.4 -28.4997 592.6 -28.6997C591.9 -28.8997 591.1 -29.0997 590.4 -29.3997C589.7 -29.5997 588.9 -29.7997 588.2 -29.9997C571.3 -34.0997 557.1 -33.1997 546.5 -30.4997C546.4 -30.4997 546.4 -30.4997 546.3 -30.4997C546.2 -30.4997 546.2 -30.4997 546.1 -30.3997C539.4 -28.6997 534.1 -26.2997 530.5 -24.3997C530.1 -24.1997 529.7 -23.9997 529.4 -23.7997C528.9 -23.4997 528.4 -23.2997 527.9 -22.9997C527.8 -22.8997 527.7 -22.8997 527.6 -22.7997C527.2 -22.5997 526.9 -22.3997 526.6 -22.1997C526.1 -21.8997 525.7 -21.5997 525.4 -21.3997C525.2 -21.2997 525.1 -21.1997 525.1 -21.1997H525C522.7 -19.5997 520.6 -17.6997 518.8 -15.6997H535.1V4.20031H484.1V4.4003Z" fill="#457FC1"/>
<path d="M484.1 274.4V223.5H504V236.6C505.4 234.8 507 233.2 508.8 231.6C510.2 230.3 511.8 229.1 513.6 227.9C516.7 225.8 520.1 223.8 524.1 221.9C535.3 216.6 547.6 214.1 559.7 216.4C562 216.8 564.4 217.5 566.7 218.3C578.9 222.6 589.4 230.9 595.8 242.3H595.7L594.9 242C594.1 241.7 593.4 241.5 592.6 241.3C591.9 241.1 591.1 240.9 590.4 240.6C589.7 240.4 588.9 240.2 588.2 240C571.3 235.9 557.1 236.8 546.5 239.5C546.4 239.5 546.4 239.5 546.3 239.5C546.2 239.5 546.2 239.5 546.1 239.6C539.4 241.3 534.1 243.7 530.5 245.6C530.1 245.8 529.7 246 529.4 246.2C528.9 246.5 528.4 246.7 527.9 247C527.8 247.1 527.7 247.1 527.6 247.2C527.2 247.4 526.9 247.6 526.6 247.8C526.1 248.1 525.7 248.4 525.4 248.6C525.2 248.7 525.1 248.8 525.1 248.8H525C522.7 250.4 520.6 252.3 518.8 254.3H535.1V274.2H484.1V274.4Z" fill="#457FC1"/>
<path d="M484.1 544.4V493.5H504V506.5C505.4 504.7 507 503.1 508.8 501.5C510.2 500.2 511.8 499 513.6 497.8C516.7 495.7 520.1 493.7 524.1 491.8C535.3 486.5 547.6 484 559.7 486.3C562 486.7 564.4 487.4 566.7 488.2C578.9 492.5 589.4 500.8 595.8 512.2H595.7L594.9 511.9C594.1 511.6 593.4 511.4 592.6 511.2C591.9 511 591.1 510.8 590.4 510.5C589.7 510.3 588.9 510.1 588.2 509.9C571.3 505.8 557.1 506.7 546.5 509.4C546.4 509.4 546.4 509.4 546.3 509.4C546.2 509.4 546.2 509.4 546.1 509.5C539.4 511.2 534.1 513.6 530.5 515.5C530.1 515.7 529.7 515.9 529.4 516.1C528.9 516.4 528.4 516.6 527.9 516.9C527.8 517 527.7 517 527.6 517.1C527.2 517.3 526.9 517.5 526.6 517.7C526.1 518 525.7 518.3 525.4 518.5C525.2 518.6 525.1 518.7 525.1 518.7H525C522.7 520.3 520.6 522.2 518.8 524.2H535.1V544.1H484.1V544.4Z" fill="#457FC1"/>
<path d="M484.1 814.4V763.5H504V776.5C505.4 774.7 507 773.1 508.8 771.5C510.2 770.2 511.8 769 513.6 767.8C516.7 765.7 520.1 763.7 524.1 761.8C535.3 756.5 547.6 754 559.7 756.3C562 756.7 564.4 757.4 566.7 758.2C578.9 762.5 589.4 770.8 595.8 782.2H595.7L594.9 781.9C594.1 781.6 593.4 781.4 592.6 781.2C591.9 781 591.1 780.8 590.4 780.5C589.7 780.3 588.9 780.1 588.2 779.9C571.3 775.8 557.1 776.7 546.5 779.4C546.4 779.4 546.4 779.4 546.3 779.4C546.2 779.4 546.2 779.4 546.1 779.5C539.4 781.2 534.1 783.6 530.5 785.5C530.1 785.7 529.7 785.9 529.4 786.1C528.9 786.4 528.4 786.6 527.9 786.9C527.8 787 527.7 787 527.6 787.1C527.2 787.3 526.9 787.5 526.6 787.7C526.1 788 525.7 788.3 525.4 788.5C525.2 788.6 525.1 788.7 525.1 788.7H525C522.7 790.3 520.6 792.2 518.8 794.2H535.1V814.1H484.1V814.4Z" fill="#457FC1"/>
<path d="M484.1 1084.4V1033.5H504V1046.6C505.4 1044.8 507 1043.2 508.8 1041.6C510.2 1040.3 511.8 1039.1 513.6 1037.9C516.7 1035.8 520.1 1033.8 524.1 1031.9C535.3 1026.6 547.6 1024.1 559.7 1026.4C562 1026.8 564.4 1027.5 566.7 1028.3C578.9 1032.6 589.4 1040.9 595.8 1052.3H595.7L594.9 1052C594.1 1051.7 593.4 1051.5 592.6 1051.3C591.9 1051.1 591.1 1050.9 590.4 1050.6C589.7 1050.4 588.9 1050.2 588.2 1050C571.3 1045.9 557.1 1046.8 546.5 1049.5C546.4 1049.5 546.4 1049.5 546.3 1049.5C546.2 1049.5 546.2 1049.5 546.1 1049.6C539.4 1051.3 534.1 1053.7 530.5 1055.6C530.1 1055.8 529.7 1056 529.4 1056.2C528.9 1056.5 528.4 1056.7 527.9 1057C527.8 1057.1 527.7 1057.1 527.6 1057.2C527.2 1057.4 526.9 1057.6 526.6 1057.8C526.1 1058.1 525.7 1058.4 525.4 1058.6C525.2 1058.7 525.1 1058.8 525.1 1058.8H525C522.7 1060.4 520.6 1062.3 518.8 1064.3H535.1V1084.2H484.1V1084.4Z" fill="#457FC1"/>
<path d="M1135.8 128.1V179H1115.9V165.9C1114.5 167.7 1112.9 169.3 1111.1 170.9C1109.7 172.2 1108.1 173.4 1106.3 174.6C1103.2 176.7 1099.8 178.7 1095.8 180.6C1084.6 185.9 1072.3 188.4 1060.2 186.1C1057.9 185.7 1055.5 185 1053.2 184.2C1041 179.9 1030.5 171.6 1024.1 160.2H1024.2L1025 160.5C1025.8 160.8 1026.5 161 1027.3 161.2C1028 161.4 1028.8 161.6 1029.5 161.9C1030.2 162.1 1031 162.3 1031.7 162.5C1048.6 166.6 1062.8 165.7 1073.4 163C1073.5 163 1073.5 163 1073.6 163C1073.7 163 1073.7 163 1073.8 162.9C1080.5 161.2 1085.8 158.8 1089.4 156.9C1089.8 156.7 1090.2 156.5 1090.5 156.3C1091 156 1091.5 155.8 1092 155.5C1092.1 155.4 1092.2 155.4 1092.3 155.3C1092.7 155.1 1093 154.9 1093.3 154.7C1093.8 154.4 1094.2 154.1 1094.5 153.9C1094.7 153.8 1094.8 153.7 1094.8 153.7H1094.9C1097.2 152.1 1099.3 150.2 1101.1 148.2H1084.8V128.1H1135.8Z" fill="white"/>
<path d="M1135.8 398.1V449H1115.9V436C1114.5 437.8 1112.9 439.4 1111.1 441C1109.7 442.3 1108.1 443.5 1106.3 444.7C1103.2 446.8 1099.8 448.8 1095.8 450.7C1084.6 456 1072.3 458.5 1060.2 456.2C1057.9 455.8 1055.5 455.1 1053.2 454.3C1041 450 1030.5 441.7 1024.1 430.3H1024.2L1025 430.6C1025.8 430.9 1026.5 431.1 1027.3 431.3C1028 431.5 1028.8 431.7 1029.5 432C1030.2 432.2 1031 432.4 1031.7 432.6C1048.6 436.7 1062.8 435.8 1073.4 433.1C1073.5 433.1 1073.5 433.1 1073.6 433.1C1073.7 433.1 1073.7 433.1 1073.8 433C1080.5 431.3 1085.8 428.9 1089.4 427C1089.8 426.8 1090.2 426.6 1090.5 426.4C1091 426.1 1091.5 425.9 1092 425.6C1092.1 425.5 1092.2 425.5 1092.3 425.4C1092.7 425.2 1093 425 1093.3 424.8C1093.8 424.5 1094.2 424.2 1094.5 424C1094.7 423.9 1094.8 423.8 1094.8 423.8H1094.9C1097.2 422.2 1099.3 420.3 1101.1 418.3H1084.8V398.1H1135.8Z" fill="white"/>
<path d="M1135.8 668.1V719H1115.9V705.9C1114.5 707.7 1112.9 709.3 1111.1 710.9C1109.7 712.2 1108.1 713.4 1106.3 714.6C1103.2 716.7 1099.8 718.7 1095.8 720.6C1084.6 725.9 1072.3 728.4 1060.2 726.1C1057.9 725.7 1055.5 725 1053.2 724.2C1041 719.9 1030.5 711.6 1024.1 700.2H1024.2L1025 700.5C1025.8 700.8 1026.5 701 1027.3 701.2C1028 701.4 1028.8 701.6 1029.5 701.9C1030.2 702.1 1031 702.3 1031.7 702.5C1048.6 706.6 1062.8 705.7 1073.4 703C1073.5 703 1073.5 703 1073.6 703C1073.7 703 1073.7 703 1073.8 702.9C1080.5 701.2 1085.8 698.8 1089.4 696.9C1089.8 696.7 1090.2 696.5 1090.5 696.3C1091 696 1091.5 695.8 1092 695.5C1092.1 695.4 1092.2 695.4 1092.3 695.3C1092.7 695.1 1093 694.9 1093.3 694.7C1093.8 694.4 1094.2 694.1 1094.5 693.9C1094.7 693.8 1094.8 693.7 1094.8 693.7H1094.9C1097.2 692.1 1099.3 690.2 1101.1 688.2H1084.8V668.1H1135.8Z" fill="white"/>
<path d="M1135.8 938.1V989H1115.9V976C1114.5 977.8 1112.9 979.4 1111.1 981C1109.7 982.3 1108.1 983.5 1106.3 984.7C1103.2 986.8 1099.8 988.8 1095.8 990.7C1084.6 996 1072.3 998.5 1060.2 996.2C1057.9 995.8 1055.5 995.1 1053.2 994.3C1041 990 1030.5 981.7 1024.1 970.3H1024.2L1025 970.6C1025.8 970.9 1026.5 971.1 1027.3 971.3C1028 971.5 1028.8 971.8 1029.5 972C1030.2 972.2 1031 972.4 1031.7 972.6C1048.6 976.9 1062.8 975.8 1073.4 973.1C1073.5 973.1 1073.5 973.1 1073.6 973.1C1073.7 973.1 1073.7 973.1 1073.8 973C1080.5 971.3 1085.8 968.9 1089.4 967C1089.8 966.8 1090.2 966.6 1090.5 966.4C1091 966.1 1091.5 965.8 1092 965.6C1092.1 965.5 1092.2 965.5 1092.3 965.4C1092.7 965.2 1093 965 1093.3 964.8C1093.8 964.5 1094.2 964.2 1094.5 964C1094.7 963.9 1094.8 963.8 1094.8 963.8H1094.9C1097.2 962.2 1099.3 960.3 1101.1 958.3H1084.8V938.1H1135.8Z" fill="white"/>
<path d="M1024.1 4.4003V-46.4997H1044V-33.3997C1045.4 -35.1997 1047 -36.7997 1048.8 -38.3997C1050.2 -39.6997 1051.8 -40.8997 1053.6 -42.0997C1056.7 -44.1997 1060.1 -46.1997 1064.1 -48.0997C1075.3 -53.3997 1087.6 -55.8997 1099.7 -53.5997C1102 -53.1997 1104.4 -52.4997 1106.7 -51.6997C1118.9 -47.3997 1129.4 -39.0997 1135.8 -27.6997H1135.7L1134.9 -27.9997C1134.1 -28.2997 1133.4 -28.4997 1132.6 -28.6997C1131.9 -28.8997 1131.1 -29.1997 1130.4 -29.3997C1129.7 -29.5997 1128.9 -29.7997 1128.2 -29.9997C1111.3 -34.2997 1097.1 -33.1997 1086.5 -30.4997C1086.4 -30.4997 1086.4 -30.4997 1086.3 -30.4997C1086.2 -30.4997 1086.2 -30.4997 1086.1 -30.3997C1079.4 -28.6997 1074.1 -26.2997 1070.5 -24.3997C1070.1 -24.1997 1069.7 -23.9997 1069.4 -23.7997C1068.9 -23.4997 1068.4 -23.1997 1067.9 -22.9997C1067.8 -22.8997 1067.7 -22.8997 1067.6 -22.7997C1067.2 -22.5997 1066.9 -22.3997 1066.6 -22.1997C1066.1 -21.8997 1065.7 -21.5997 1065.4 -21.3997C1065.2 -21.2997 1065.1 -21.1997 1065.1 -21.1997H1065C1062.7 -19.5997 1060.6 -17.6997 1058.8 -15.6997H1075.1V4.20031H1024.1V4.4003Z" fill="#457FC1"/>
<path d="M1024.1 274.4V223.5H1044V236.6C1045.4 234.8 1047 233.2 1048.8 231.6C1050.2 230.3 1051.8 229.1 1053.6 227.9C1056.7 225.8 1060.1 223.8 1064.1 221.9C1075.3 216.6 1087.6 214.1 1099.7 216.4C1102 216.8 1104.4 217.5 1106.7 218.3C1118.9 222.6 1129.4 230.9 1135.8 242.3H1135.7L1134.9 242C1134.1 241.7 1133.4 241.5 1132.6 241.3C1131.9 241.1 1131.1 240.9 1130.4 240.6C1129.7 240.4 1128.9 240.2 1128.2 240C1111.3 235.9 1097.1 236.8 1086.5 239.5C1086.4 239.5 1086.4 239.5 1086.3 239.5C1086.2 239.5 1086.2 239.5 1086.1 239.6C1079.4 241.3 1074.1 243.7 1070.5 245.6C1070.1 245.8 1069.7 246 1069.4 246.2C1068.9 246.5 1068.4 246.7 1067.9 247C1067.8 247.1 1067.7 247.1 1067.6 247.2C1067.2 247.4 1066.9 247.6 1066.6 247.8C1066.1 248.1 1065.7 248.4 1065.4 248.6C1065.2 248.7 1065.1 248.8 1065.1 248.8H1065C1062.7 250.4 1060.6 252.3 1058.8 254.3H1075.1V274.2H1024.1V274.4Z" fill="#457FC1"/>
<path d="M1024.1 544.4V493.5H1044V506.5C1045.4 504.7 1047 503.1 1048.8 501.5C1050.2 500.2 1051.8 499 1053.6 497.8C1056.7 495.7 1060.1 493.7 1064.1 491.8C1075.3 486.5 1087.6 484 1099.7 486.3C1102 486.7 1104.4 487.4 1106.7 488.2C1118.9 492.5 1129.4 500.8 1135.8 512.2H1135.7L1134.9 511.9C1134.1 511.6 1133.4 511.4 1132.6 511.2C1131.9 511 1131.1 510.8 1130.4 510.5C1129.7 510.3 1128.9 510.1 1128.2 509.9C1111.3 505.8 1097.1 506.7 1086.5 509.4C1086.4 509.4 1086.4 509.4 1086.3 509.4C1086.2 509.4 1086.2 509.4 1086.1 509.5C1079.4 511.2 1074.1 513.6 1070.5 515.5C1070.1 515.7 1069.7 515.9 1069.4 516.1C1068.9 516.4 1068.4 516.6 1067.9 516.9C1067.8 517 1067.7 517 1067.6 517.1C1067.2 517.3 1066.9 517.5 1066.6 517.7C1066.1 518 1065.7 518.3 1065.4 518.5C1065.2 518.6 1065.1 518.7 1065.1 518.7H1065C1062.7 520.3 1060.6 522.2 1058.8 524.2H1075.1V544.1H1024.1V544.4Z" fill="#457FC1"/>
<path d="M1024.1 814.4V763.5H1044V776.5C1045.4 774.7 1047 773.1 1048.8 771.5C1050.2 770.2 1051.8 769 1053.6 767.8C1056.7 765.7 1060.1 763.7 1064.1 761.8C1075.3 756.5 1087.6 754 1099.7 756.3C1102 756.7 1104.4 757.4 1106.7 758.2C1118.9 762.5 1129.4 770.8 1135.8 782.2H1135.7L1134.9 781.9C1134.1 781.6 1133.4 781.4 1132.6 781.2C1131.9 781 1131.1 780.8 1130.4 780.5C1129.7 780.3 1128.9 780.1 1128.2 779.9C1111.3 775.8 1097.1 776.7 1086.5 779.4C1086.4 779.4 1086.4 779.4 1086.3 779.4C1086.2 779.4 1086.2 779.4 1086.1 779.5C1079.4 781.2 1074.1 783.6 1070.5 785.5C1070.1 785.7 1069.7 785.9 1069.4 786.1C1068.9 786.4 1068.4 786.6 1067.9 786.9C1067.8 787 1067.7 787 1067.6 787.1C1067.2 787.3 1066.9 787.5 1066.6 787.7C1066.1 788 1065.7 788.3 1065.4 788.5C1065.2 788.6 1065.1 788.7 1065.1 788.7H1065C1062.7 790.3 1060.6 792.2 1058.8 794.2H1075.1V814.1H1024.1V814.4Z" fill="#457FC1"/>
<path d="M1024.1 1084.4V1033.5H1044V1046.6C1045.4 1044.8 1047 1043.2 1048.8 1041.6C1050.2 1040.3 1051.8 1039.1 1053.6 1037.9C1056.7 1035.8 1060.1 1033.8 1064.1 1031.9C1075.3 1026.6 1087.6 1024.1 1099.7 1026.4C1102 1026.8 1104.4 1027.5 1106.7 1028.3C1118.9 1032.6 1129.4 1040.9 1135.8 1052.3H1135.7L1134.9 1052C1134.1 1051.7 1133.4 1051.5 1132.6 1051.3C1131.9 1051.1 1131.1 1050.8 1130.4 1050.6C1129.7 1050.4 1128.9 1050.2 1128.2 1050C1111.3 1045.7 1097.1 1046.8 1086.5 1049.5C1086.4 1049.5 1086.4 1049.5 1086.3 1049.5C1086.2 1049.5 1086.2 1049.5 1086.1 1049.6C1079.4 1051.3 1074.1 1053.7 1070.5 1055.6C1070.1 1055.8 1069.7 1056 1069.4 1056.2C1068.9 1056.5 1068.4 1056.8 1067.9 1057C1067.8 1057.1 1067.7 1057.1 1067.6 1057.2C1067.2 1057.4 1066.9 1057.6 1066.6 1057.8C1066.1 1058.1 1065.7 1058.4 1065.4 1058.6C1065.2 1058.7 1065.1 1058.8 1065.1 1058.8H1065C1062.7 1060.4 1060.6 1062.3 1058.8 1064.3H1075.1V1084.2H1024.1V1084.4Z" fill="#457FC1"/>
<path d="M320.2 -5.2998V45.6002H300.3V32.5002C298.9 34.3002 297.3 35.9002 295.5 37.5002C294.1 38.8002 292.5 40.0002 290.7 41.2002C287.6 43.3002 284.2 45.3002 280.2 47.2002C269 52.5002 256.7 55.0002 244.6 52.7002C242.3 52.3002 239.9 51.6002 237.6 50.8002C225.4 46.5002 214.9 38.2002 208.5 26.8002H208.6L209.4 27.1002C210.2 27.4002 210.9 27.6002 211.7 27.8002C212.4 28.0002 213.2 28.2002 213.9 28.5002C214.6 28.7002 215.4 28.9002 216.1 29.1002C233 33.2002 247.2 32.3002 257.8 29.6002C257.9 29.6002 257.9 29.6002 258 29.6002C258.1 29.6002 258.1 29.6002 258.2 29.5002C264.9 27.8002 270.2 25.4002 273.8 23.5002C274.2 23.3002 274.6 23.1002 274.9 22.9002C275.4 22.6002 275.9 22.4002 276.4 22.1002C276.5 22.0002 276.6 22.0002 276.7 21.9002C277.1 21.7002 277.4 21.5002 277.7 21.3002C278.2 21.0002 278.6 20.7002 278.9 20.5002C279.1 20.4002 279.2 20.3002 279.2 20.3002H279.3C281.6 18.7002 283.7 16.8002 285.5 14.8002H269.2V-5.09981H320.2V-5.2998Z" fill="white"/>
<path d="M320.2 264.7V315.6H300.3V302.5C298.9 304.3 297.3 305.9 295.5 307.5C294.1 308.8 292.5 310 290.7 311.2C287.6 313.3 284.2 315.3 280.2 317.2C269 322.5 256.7 325 244.6 322.7C242.3 322.3 239.9 321.6 237.6 320.8C225.4 316.5 214.9 308.2 208.5 296.8H208.6L209.4 297.1C210.2 297.4 210.9 297.6 211.7 297.8C212.4 298 213.2 298.2 213.9 298.5C214.6 298.7 215.4 298.9 216.1 299.1C233 303.2 247.2 302.3 257.8 299.6C257.9 299.6 257.9 299.6 258 299.6C258.1 299.6 258.1 299.6 258.2 299.5C264.9 297.8 270.2 295.4 273.8 293.5C274.2 293.3 274.6 293.1 274.9 292.9C275.4 292.6 275.9 292.4 276.4 292.1C276.5 292 276.6 292 276.7 291.9C277.1 291.7 277.4 291.5 277.7 291.3C278.2 291 278.6 290.7 278.9 290.5C279.1 290.4 279.2 290.3 279.2 290.3H279.3C281.6 288.7 283.7 286.8 285.5 284.8H269.2V264.9H320.2V264.7Z" fill="white"/>
<path d="M320.2 534.7V585.6H300.3V572.5C298.9 574.3 297.3 575.9 295.5 577.5C294.1 578.8 292.5 580 290.7 581.2C287.6 583.3 284.2 585.3 280.2 587.2C269 592.5 256.7 595 244.6 592.7C242.3 592.3 239.9 591.6 237.6 590.8C225.4 586.5 214.9 578.2 208.5 566.8H208.6L209.4 567.1C210.2 567.4 210.9 567.6 211.7 567.8C212.4 568 213.2 568.2 213.9 568.5C214.6 568.7 215.4 568.9 216.1 569.1C233 573.2 247.2 572.3 257.8 569.6C257.9 569.6 257.9 569.6 258 569.6C258.1 569.6 258.1 569.6 258.2 569.5C264.9 567.8 270.2 565.4 273.8 563.5C274.2 563.3 274.6 563.1 274.9 562.9C275.4 562.6 275.9 562.4 276.4 562.1C276.5 562 276.6 562 276.7 561.9C277.1 561.7 277.4 561.5 277.7 561.3C278.2 561 278.6 560.7 278.9 560.5C279.1 560.4 279.2 560.3 279.2 560.3H279.3C281.6 558.7 283.7 556.8 285.5 554.8H269.2V534.9H320.2V534.7Z" fill="white"/>
<path d="M320.2 804.7V855.6H300.3V842.5C298.9 844.3 297.3 845.9 295.5 847.5C294.1 848.8 292.5 850 290.7 851.2C287.6 853.3 284.2 855.3 280.2 857.2C269 862.5 256.7 865 244.6 862.7C242.3 862.3 239.9 861.6 237.6 860.8C225.4 856.5 214.9 848.2 208.5 836.8H208.6L209.4 837.1C210.2 837.4 210.9 837.6 211.7 837.8C212.4 838 213.2 838.2 213.9 838.5C214.6 838.7 215.4 838.9 216.1 839.1C233 843.2 247.2 842.3 257.8 839.6C257.9 839.6 257.9 839.6 258 839.6C258.1 839.6 258.1 839.6 258.2 839.5C264.9 837.8 270.2 835.4 273.8 833.5C274.2 833.3 274.6 833.1 274.9 832.9C275.4 832.6 275.9 832.4 276.4 832.1C276.5 832 276.6 832 276.7 831.9C277.1 831.7 277.4 831.5 277.7 831.3C278.2 831 278.6 830.7 278.9 830.5C279.1 830.4 279.2 830.3 279.2 830.3H279.3C281.6 828.7 283.7 826.8 285.5 824.8H269.2V804.9H320.2V804.7Z" fill="white"/>
<path d="M320.2 1074.7V1125.6H300.3V1112.5C298.9 1114.3 297.3 1115.9 295.5 1117.5C294.1 1118.8 292.5 1120 290.7 1121.2C287.6 1123.3 284.2 1125.3 280.2 1127.2C269 1132.5 256.7 1135 244.6 1132.7C242.3 1132.3 239.9 1131.6 237.6 1130.8C225.4 1126.5 214.9 1118.2 208.5 1106.8H208.6L209.4 1107.1C210.2 1107.4 210.9 1107.6 211.7 1107.8C212.4 1108 213.2 1108.2 213.9 1108.5C214.6 1108.7 215.4 1108.9 216.1 1109.1C233 1113.2 247.2 1112.3 257.8 1109.6C257.9 1109.6 257.9 1109.6 258 1109.6C258.1 1109.6 258.1 1109.6 258.2 1109.5C264.9 1107.8 270.2 1105.4 273.8 1103.5C274.2 1103.3 274.6 1103.1 274.9 1102.9C275.4 1102.6 275.9 1102.4 276.4 1102.1C276.5 1102 276.6 1102 276.7 1101.9C277.1 1101.7 277.4 1101.5 277.7 1101.3C278.2 1101 278.6 1100.7 278.9 1100.5C279.1 1100.4 279.2 1100.3 279.2 1100.3H279.3C281.6 1098.7 283.7 1096.8 285.5 1094.8H269.2V1074.9H320.2V1074.7Z" fill="white"/>
<path d="M208.5 141.1V90.1004H228.4V103.2C229.8 101.4 231.4 99.8004 233.2 98.2004C234.6 96.9004 236.2 95.7004 238 94.5004C241.1 92.4004 244.5 90.4004 248.5 88.5004C259.7 83.2004 272 80.7004 284.1 83.0004C286.4 83.4004 288.8 84.1004 291.1 84.9004C303.3 89.2004 313.8 97.5004 320.2 108.9H320.1L319.3 108.6C318.5 108.3 317.8 108.1 317 107.9C316.3 107.7 315.5 107.5 314.8 107.2C314.1 107 313.3 106.8 312.6 106.6C295.7 102.5 281.5 103.4 270.9 106.1C270.8 106.1 270.8 106.1 270.7 106.1C270.6 106.1 270.6 106.1 270.5 106.2C263.8 107.9 258.5 110.3 254.9 112.2C254.5 112.4 254.1 112.6 253.8 112.8C253.3 113.1 252.8 113.3 252.3 113.6C252.2 113.7 252.1 113.7 252 113.8C251.6 114 251.3 114.2 251 114.4C250.5 114.7 250.1 115 249.8 115.2C249.6 115.3 249.5 115.4 249.5 115.4H249.4C247.1 117 245 118.9 243.2 120.9H259.5V141.1H208.5Z" fill="#457FC1"/>
<path d="M208.5 411.1V360.1H228.4V373.2C229.8 371.4 231.4 369.8 233.2 368.2C234.6 366.9 236.2 365.7 238 364.5C241.1 362.4 244.5 360.4 248.5 358.5C259.7 353.2 272 350.7 284.1 353C286.4 353.4 288.8 354.1 291.1 354.9C303.3 359.2 313.8 367.5 320.2 378.9H320.1L319.3 378.6C318.5 378.3 317.8 378.1 317 377.9C316.3 377.7 315.5 377.5 314.8 377.2C314.1 377 313.3 376.8 312.6 376.6C295.7 372.5 281.5 373.4 270.9 376.1C270.8 376.1 270.8 376.1 270.7 376.1C270.6 376.1 270.6 376.1 270.5 376.2C263.8 377.9 258.5 380.3 254.9 382.2C254.5 382.4 254.1 382.6 253.8 382.8C253.3 383.1 252.8 383.3 252.3 383.6C252.2 383.7 252.1 383.7 252 383.8C251.6 384 251.3 384.2 251 384.4C250.5 384.7 250.1 385 249.8 385.2C249.6 385.3 249.5 385.4 249.5 385.4H249.4C247.1 387 245 388.9 243.2 390.9H259.5V411.1H208.5Z" fill="#457FC1"/>
<path d="M208.5 681.1V630.1H228.4V643.1C229.8 641.3 231.4 639.7 233.2 638.1C234.6 636.8 236.2 635.6 238 634.4C241.1 632.3 244.5 630.3 248.5 628.4C259.7 623.1 272 620.6 284.1 622.9C286.4 623.3 288.8 624 291.1 624.8C303.3 629.1 313.8 637.4 320.2 648.8H320.1L319.3 648.5C318.5 648.2 317.8 648 317 647.8C316.3 647.6 315.5 647.4 314.8 647.1C314.1 646.9 313.3 646.7 312.6 646.5C295.7 642.4 281.5 643.3 270.9 646C270.8 646 270.8 646 270.7 646C270.6 646 270.6 646 270.5 646.1C263.8 647.8 258.5 650.2 254.9 652.1C254.5 652.3 254.1 652.5 253.8 652.7C253.3 653 252.8 653.2 252.3 653.5C252.2 653.6 252.1 653.6 252 653.7C251.6 653.9 251.3 654.1 251 654.3C250.5 654.6 250.1 654.9 249.8 655.1C249.6 655.2 249.5 655.3 249.5 655.3H249.4C247.1 656.9 245 658.8 243.2 660.8H259.5V681.1H208.5Z" fill="#457FC1"/>
<path d="M208.5 951.1V900.1H228.4V913.2C229.8 911.4 231.4 909.8 233.2 908.2C234.6 906.9 236.2 905.7 238 904.5C241.1 902.4 244.5 900.4 248.5 898.5C259.7 893.2 272 890.7 284.1 893C286.4 893.4 288.8 894.1 291.1 894.9C303.3 899.2 313.8 907.5 320.2 918.9H320.1L319.3 918.6C318.5 918.3 317.8 918.1 317 917.9C316.3 917.7 315.5 917.5 314.8 917.2C314.1 917 313.3 916.8 312.6 916.6C295.7 912.5 281.5 913.4 270.9 916.1C270.8 916.1 270.8 916.1 270.7 916.1C270.6 916.1 270.6 916.1 270.5 916.2C263.8 917.9 258.5 920.3 254.9 922.2C254.5 922.4 254.1 922.6 253.8 922.8C253.3 923.1 252.8 923.3 252.3 923.6C252.2 923.7 252.1 923.7 252 923.8C251.6 924 251.3 924.2 251 924.4C250.5 924.7 250.1 925 249.8 925.2C249.6 925.3 249.5 925.4 249.5 925.4H249.4C247.1 927 245 928.9 243.2 930.9H259.5V950.8H208.5V951.1Z" fill="#457FC1"/>
<path d="M871.4 -5.2998V45.6002H851.5V32.5002C850.1 34.3002 848.5 35.9002 846.7 37.5002C845.3 38.8002 843.7 40.0002 841.9 41.2002C838.8 43.3002 835.4 45.3002 831.4 47.2002C820.2 52.5002 807.9 55.0002 795.8 52.7002C793.5 52.3002 791.1 51.6002 788.8 50.8002C776.6 46.5002 766.1 38.2002 759.7 26.8002H759.8L760.6 27.1002C761.4 27.4002 762.1 27.6002 762.9 27.8002C763.6 28.0002 764.4 28.2002 765.1 28.5002C765.8 28.7002 766.6 28.9002 767.3 29.1002C784.2 33.2002 798.4 32.3002 809 29.6002C809.1 29.6002 809.1 29.6002 809.2 29.6002C809.3 29.6002 809.3 29.6002 809.4 29.5002C816.1 27.8002 821.4 25.4002 825 23.5002C825.4 23.3002 825.8 23.1002 826.1 22.9002C826.6 22.6002 827.1 22.4002 827.6 22.1002C827.7 22.0002 827.8 22.0002 827.9 21.9002C828.3 21.7002 828.6 21.5002 828.9 21.3002C829.4 21.0002 829.8 20.7002 830.1 20.5002C830.3 20.4002 830.4 20.3002 830.4 20.3002H830.5C832.8 18.7002 834.9 16.8002 836.7 14.8002H820.4V-5.09981H871.4V-5.2998Z" fill="white"/>
<path d="M871.4 264.7V315.6H851.5V302.5C850.1 304.3 848.5 305.9 846.7 307.5C845.3 308.8 843.7 310 841.9 311.2C838.8 313.3 835.4 315.3 831.4 317.2C820.2 322.5 807.9 325 795.8 322.7C793.5 322.3 791.1 321.6 788.8 320.8C776.6 316.5 766.1 308.2 759.7 296.8H759.8L760.6 297.1C761.4 297.4 762.1 297.6 762.9 297.8C763.6 298 764.4 298.2 765.1 298.5C765.8 298.7 766.6 298.9 767.3 299.1C784.2 303.2 798.4 302.3 809 299.6C809.1 299.6 809.1 299.6 809.2 299.6C809.3 299.6 809.3 299.6 809.4 299.5C816.1 297.8 821.4 295.4 825 293.5C825.4 293.3 825.8 293.1 826.1 292.9C826.6 292.6 827.1 292.4 827.6 292.1C827.7 292 827.8 292 827.9 291.9C828.3 291.7 828.6 291.5 828.9 291.3C829.4 291 829.8 290.7 830.1 290.5C830.3 290.4 830.4 290.3 830.4 290.3H830.5C832.8 288.7 834.9 286.8 836.7 284.8H820.4V264.9H871.4V264.7Z" fill="white"/>
<path d="M871.4 534.7V585.6H851.5V572.5C850.1 574.3 848.5 575.9 846.7 577.5C845.3 578.8 843.7 580 841.9 581.2C838.8 583.3 835.4 585.3 831.4 587.2C820.2 592.5 807.9 595 795.8 592.7C793.5 592.3 791.1 591.6 788.8 590.8C776.6 586.5 766.1 578.2 759.7 566.8H759.8L760.6 567.1C761.4 567.4 762.1 567.6 762.9 567.8C763.6 568 764.4 568.2 765.1 568.5C765.8 568.7 766.6 568.9 767.3 569.1C784.2 573.2 798.4 572.3 809 569.6C809.1 569.6 809.1 569.6 809.2 569.6C809.3 569.6 809.3 569.6 809.4 569.5C816.1 567.8 821.4 565.4 825 563.5C825.4 563.3 825.8 563.1 826.1 562.9C826.6 562.6 827.1 562.4 827.6 562.1C827.7 562 827.8 562 827.9 561.9C828.3 561.7 828.6 561.5 828.9 561.3C829.4 561 829.8 560.7 830.1 560.5C830.3 560.4 830.4 560.3 830.4 560.3H830.5C832.8 558.7 834.9 556.8 836.7 554.8H820.4V534.9H871.4V534.7Z" fill="white"/>
<path d="M871.4 804.7V855.6H851.5V842.5C850.1 844.3 848.5 845.9 846.7 847.5C845.3 848.8 843.7 850 841.9 851.2C838.8 853.3 835.4 855.3 831.4 857.2C820.2 862.5 807.9 865 795.8 862.7C793.5 862.3 791.1 861.6 788.8 860.8C776.6 856.5 766.1 848.2 759.7 836.8H759.8L760.6 837.1C761.4 837.4 762.1 837.6 762.9 837.8C763.6 838 764.4 838.2 765.1 838.5C765.8 838.7 766.6 838.9 767.3 839.1C784.2 843.2 798.4 842.3 809 839.6C809.1 839.6 809.1 839.6 809.2 839.6C809.3 839.6 809.3 839.6 809.4 839.5C816.1 837.8 821.4 835.4 825 833.5C825.4 833.3 825.8 833.1 826.1 832.9C826.6 832.6 827.1 832.4 827.6 832.1C827.7 832 827.8 832 827.9 831.9C828.3 831.7 828.6 831.5 828.9 831.3C829.4 831 829.8 830.7 830.1 830.5C830.3 830.4 830.4 830.3 830.4 830.3H830.5C832.8 828.7 834.9 826.8 836.7 824.8H820.4V804.9H871.4V804.7Z" fill="white"/>
<path d="M871.4 1074.7V1125.6H851.5V1112.5C850.1 1114.3 848.5 1115.9 846.7 1117.5C845.3 1118.8 843.7 1120 841.9 1121.2C838.8 1123.3 835.4 1125.3 831.4 1127.2C820.2 1132.5 807.9 1135 795.8 1132.7C793.5 1132.3 791.1 1131.6 788.8 1130.8C776.6 1126.5 766.1 1118.2 759.7 1106.8H759.8L760.6 1107.1C761.4 1107.4 762.1 1107.6 762.9 1107.8C763.6 1108 764.4 1108.2 765.1 1108.5C765.8 1108.7 766.6 1108.9 767.3 1109.1C784.2 1113.2 798.4 1112.3 809 1109.6C809.1 1109.6 809.1 1109.6 809.2 1109.6C809.3 1109.6 809.3 1109.6 809.4 1109.5C816.1 1107.8 821.4 1105.4 825 1103.5C825.4 1103.3 825.8 1103.1 826.1 1102.9C826.6 1102.6 827.1 1102.4 827.6 1102.1C827.7 1102 827.8 1102 827.9 1101.9C828.3 1101.7 828.6 1101.5 828.9 1101.3C829.4 1101 829.8 1100.7 830.1 1100.5C830.3 1100.4 830.4 1100.3 830.4 1100.3H830.5C832.8 1098.7 834.9 1096.8 836.7 1094.8H820.4V1074.9H871.4V1074.7Z" fill="white"/>
<path d="M759.7 141.1V90.1004H779.6V103.2C781 101.4 782.6 99.8004 784.4 98.2004C785.8 96.9004 787.4 95.7004 789.2 94.5004C792.3 92.4004 795.7 90.4004 799.7 88.5004C810.9 83.2004 823.2 80.7004 835.3 83.0004C837.6 83.4004 840 84.1004 842.3 84.9004C854.5 89.2004 865 97.5004 871.4 108.9H871.3L870.5 108.6C869.7 108.3 869 108.1 868.2 107.9C867.5 107.7 866.7 107.5 866 107.2C865.3 107 864.5 106.8 863.8 106.6C846.9 102.5 832.7 103.4 822.1 106.1C822 106.1 822 106.1 821.9 106.1C821.8 106.1 821.8 106.1 821.7 106.2C815 107.9 809.7 110.3 806.1 112.2C805.7 112.4 805.3 112.6 805 112.8C804.5 113.1 804 113.3 803.5 113.6C803.4 113.7 803.3 113.7 803.2 113.8C802.8 114 802.5 114.2 802.2 114.4C801.7 114.7 801.3 115 801 115.2C800.8 115.3 800.7 115.4 800.7 115.4H800.6C798.3 117 796.2 118.9 794.4 120.9H810.7V141.1H759.7Z" fill="#457FC1"/>
<path d="M759.7 411.1V360.1H779.6V373.2C781 371.4 782.6 369.8 784.4 368.2C785.8 366.9 787.4 365.7 789.2 364.5C792.3 362.4 795.7 360.4 799.7 358.5C810.9 353.2 823.2 350.7 835.3 353C837.6 353.4 840 354.1 842.3 354.9C854.5 359.2 865 367.5 871.4 378.9H871.3L870.5 378.6C869.7 378.3 869 378.1 868.2 377.9C867.5 377.7 866.7 377.5 866 377.2C865.3 377 864.5 376.8 863.8 376.6C846.9 372.5 832.7 373.4 822.1 376.1C822 376.1 822 376.1 821.9 376.1C821.8 376.1 821.8 376.1 821.7 376.2C815 377.9 809.7 380.3 806.1 382.2C805.7 382.4 805.3 382.6 805 382.8C804.5 383.1 804 383.3 803.5 383.6C803.4 383.7 803.3 383.7 803.2 383.8C802.8 384 802.5 384.2 802.2 384.4C801.7 384.7 801.3 385 801 385.2C800.8 385.3 800.7 385.4 800.7 385.4H800.6C798.3 387 796.2 388.9 794.4 390.9H810.7V411.1H759.7Z" fill="#457FC1"/>
<path d="M759.7 681.1V630.1H779.6V643.1C781 641.3 782.6 639.7 784.4 638.1C785.8 636.8 787.4 635.6 789.2 634.4C792.3 632.3 795.7 630.3 799.7 628.4C810.9 623.1 823.2 620.6 835.3 622.9C837.6 623.3 840 624 842.3 624.8C854.5 629.1 865 637.4 871.4 648.8H871.3L870.5 648.5C869.7 648.2 869 648 868.2 647.8C867.5 647.6 866.7 647.4 866 647.1C865.3 646.9 864.5 646.7 863.8 646.5C846.9 642.4 832.7 643.3 822.1 646C822 646 822 646 821.9 646C821.8 646 821.8 646 821.7 646.1C815 647.8 809.7 650.2 806.1 652.1C805.7 652.3 805.3 652.5 805 652.7C804.5 653 804 653.2 803.5 653.5C803.4 653.6 803.3 653.6 803.2 653.7C802.8 653.9 802.5 654.1 802.2 654.3C801.7 654.6 801.3 654.9 801 655.1C800.8 655.2 800.7 655.3 800.7 655.3H800.6C798.3 656.9 796.2 658.8 794.4 660.8H810.7V681.1H759.7Z" fill="#457FC1"/>
<path d="M759.7 951.1V900.1H779.6V913.2C781 911.4 782.6 909.8 784.4 908.2C785.8 906.9 787.4 905.7 789.2 904.5C792.3 902.4 795.7 900.4 799.7 898.5C810.9 893.2 823.2 890.7 835.3 893C837.6 893.4 840 894.1 842.3 894.9C854.5 899.2 865 907.5 871.4 918.9H871.3L870.5 918.6C869.7 918.3 869 918.1 868.2 917.9C867.5 917.7 866.7 917.5 866 917.2C865.3 917 864.5 916.8 863.8 916.6C846.9 912.5 832.7 913.4 822.1 916.1C822 916.1 822 916.1 821.9 916.1C821.8 916.1 821.8 916.1 821.7 916.2C815 917.9 809.7 920.3 806.1 922.2C805.7 922.4 805.3 922.6 805 922.8C804.5 923.1 804 923.3 803.5 923.6C803.4 923.7 803.3 923.7 803.2 923.8C802.8 924 802.5 924.2 802.2 924.4C801.7 924.7 801.3 925 801 925.2C800.8 925.3 800.7 925.4 800.7 925.4H800.6C798.3 927 796.2 928.9 794.4 930.9H810.7V950.8H759.7V951.1Z" fill="#457FC1"/>
</g>
<defs>
<clipPath id="clip0_3055_59707">
<rect width="1080" height="1080" fill="white"/>
</clipPath>
</defs>
</svg>
