<svg width="21" height="20" viewBox="0 0 21 20" fill="none" xmlns="http://www.w3.org/2000/svg">
<path d="M10.5 12.5C11.8807 12.5 13 11.3807 13 10C13 8.61929 11.8807 7.5 10.5 7.5C9.11929 7.5 8 8.61929 8 10C8 11.3807 9.11929 12.5 10.5 12.5Z" fill="#0E0E2C"/>
<path d="M14.5263 3.33366L13.0013 1.66699H8.0013L6.4763 3.33366H2.16797V16.667H18.8346V3.33366H14.5263ZM10.5013 14.167C8.2013 14.167 6.33464 12.3003 6.33464 10.0003C6.33464 7.70032 8.2013 5.83366 10.5013 5.83366C12.8013 5.83366 14.668 7.70032 14.668 10.0003C14.668 12.3003 12.8013 14.167 10.5013 14.167Z" fill="#0E0E2C"/>
</svg>
