<svg width="15" height="14" viewBox="0 0 15 14" fill="none" xmlns="http://www.w3.org/2000/svg">
<path d="M12.9833 0.166992H2.025L0 6.00033V13.5003H2.5V11.8337H12.5V13.5003H15V6.00033L12.9833 0.166992ZM2.91667 9.33366C2.225 9.33366 1.66667 8.77533 1.66667 8.08366C1.66667 7.39199 2.225 6.83366 2.91667 6.83366C3.60833 6.83366 4.16667 7.39199 4.16667 8.08366C4.16667 8.77533 3.60833 9.33366 2.91667 9.33366ZM12.0833 9.33366C11.3917 9.33366 10.8333 8.77533 10.8333 8.08366C10.8333 7.39199 11.3917 6.83366 12.0833 6.83366C12.775 6.83366 13.3333 7.39199 13.3333 8.08366C13.3333 8.77533 12.775 9.33366 12.0833 9.33366ZM1.66667 5.16699L2.91667 1.41699H12.0833L13.3333 5.16699H1.66667Z" fill="#0E0E2C"/>
</svg>
