<svg width="20" height="20" viewBox="0 0 20 20" fill="#000" xmlns="http://www.w3.org/2000/svg">
<path d="M5.05925 2C5.05925 0.89 4.22893 0 3.19337 0C2.1578 0 1.32748 0.89 1.32748 2C1.32748 3.11 2.1578 4 3.19337 4C4.22893 4 5.05925 3.11 5.05925 2ZM8.03535 2.5C7.65284 2.5 7.32631 2.75 7.17704 3.13C6.76654 4.23 5.76829 5 4.59278 5H1.79395C1.0196 5 0.394531 5.67 0.394531 6.5V9H5.9922V6.74C7.32631 6.29 8.3992 5.21 8.90299 3.83C9.14555 3.19 8.67908 2.5 8.03535 2.5ZM16.2546 15C17.2902 15 18.1205 14.11 18.1205 13C18.1205 11.89 17.2902 11 16.2546 11C15.219 11 14.3887 11.89 14.3887 13C14.3887 14.11 15.219 15 16.2546 15ZM17.654 16H14.8552C13.6797 16 12.6814 15.23 12.2709 14.13C12.131 13.75 11.7951 13.5 11.4126 13.5C10.7689 13.5 10.3024 14.19 10.5356 14.83C11.0488 16.21 12.1123 17.29 13.4464 17.74V20H19.0441V17.5C19.0534 16.67 18.4284 16 17.654 16ZM14.6219 9.09C14.6219 9.09 14.6219 9.08 14.6313 9.09C13.6423 9.36 12.8587 10.2 12.6068 11.26V11.25C12.5042 11.68 12.131 12 11.6925 12C11.1794 12 10.7595 11.55 10.7595 11C10.7595 10.95 10.7782 10.86 10.7782 10.86C11.1794 9.01 12.5415 7.55 14.2767 7.13C14.3141 7.13 14.3514 7.12 14.3887 7.12C14.9018 7.12 15.3216 7.57 15.3216 8.12C15.3216 8.58 15.0231 8.98 14.6219 9.09ZM15.3216 4.06C15.3216 4.57 14.9765 4.98 14.5193 5.05C11.5432 5.44 9.20153 7.96 8.83768 11.15C8.77237 11.63 8.38054 12 7.91406 12C7.40095 12 6.98112 11.55 6.98112 11C6.98112 10.98 6.98112 10.96 6.98112 10.94C6.98112 10.93 6.98112 10.92 6.98112 10.91C7.44759 6.79 10.517 3.53 14.37 3.06H14.3794C14.9018 3.06 15.3216 3.51 15.3216 4.06Z" fill="#252A31"/>
</svg>
