<svg width="20" height="18" viewBox="0 0 20 18" fill="#000" xmlns="http://www.w3.org/2000/svg">
<path d="M4.58888 18H1.32357C0.81045 18 0.390625 17.55 0.390625 17V7C0.390625 6.45 0.81045 6 1.32357 6H4.58888C5.102 6 5.52182 6.45 5.52182 7V17C5.52182 17.55 5.102 18 4.58888 18ZM11.3527 0H8.08742C7.5743 0 7.15447 0.45 7.15447 1V17C7.15447 17.55 7.5743 18 8.08742 18H11.3527C11.8658 18 12.2857 17.55 12.2857 17V1C12.2857 0.45 11.8658 0 11.3527 0ZM18.1166 8H14.8513C14.3381 8 13.9183 8.45 13.9183 9V17C13.9183 17.55 14.3381 18 14.8513 18H18.1166C18.6297 18 19.0495 17.55 19.0495 17V9C19.0495 8.45 18.6297 8 18.1166 8Z" fill="#252A31"/>
</svg>
