<svg width="60" height="60" viewBox="0 0 169 76" fill="none" xmlns="http://www.w3.org/2000/svg">
<path d="M89.7998 38C89.7998 17.4 105.3 0.700012 129.2 0.700012C153.1 0.700012 168.6 17.3 168.6 38C168.6 58.8 153.1 75.4 129.2 75.4C105.3 75.4 89.7998 58.7 89.7998 38ZM149.2 38C149.2 27.2 141.5 17.5 129.1 17.5C116.6 17.5 109 27.3 109 38C109 48.8 116.5 58.8 129.1 58.8C141.6 58.7 149.2 48.7 149.2 38Z" fill="#FFCE39"/>
<path d="M80.0999 35.2V69.5H66.6999V60.7C65.7999 61.9 64.6998 63 63.4998 64.1C62.4998 64.9 61.4998 65.8 60.2998 66.6C58.2998 68 55.8998 69.4 53.2998 70.6C45.7998 74.2 37.4998 75.8 29.3998 74.3C27.7998 74 26.1999 73.6 24.6999 73C16.4999 70.1 9.39985 64.5 5.09985 56.8H5.19986L5.79984 57C6.29984 57.2 6.79984 57.3 7.29984 57.5C7.79984 57.7 8.29984 57.8 8.79984 57.9C9.29984 58.1 9.79984 58.2 10.2998 58.3C21.6998 61.2 31.1998 60.4 38.3998 58.6H38.4998H38.5999C43.0999 57.4 46.6999 55.9 49.0999 54.6C49.3999 54.5 49.5998 54.3 49.8998 54.2C50.1998 54 50.5998 53.8 50.8998 53.6C50.9998 53.6 50.9999 53.5 51.0999 53.5C51.3999 53.3 51.5998 53.2 51.7998 53.1C52.1998 52.9 52.3999 52.7 52.5999 52.6C52.6999 52.5 52.7998 52.5 52.7998 52.4C54.2998 51.3 55.6998 50.1 56.9998 48.7H45.9998V35.3H80.0999V35.2Z" fill="#457FC1"/>
<path d="M69.7999 13.4L54.6999 24.3C52.9999 22.2 50.7999 20.5 48.1999 19.3C45.6999 18.1 42.6999 17.4 39.4999 17.4C39.2999 17.4 39.0999 17.4 38.9999 17.4C38.7999 17.4 38.5999 17.4 38.3999 17.4C27.6999 17.7 19.9999 25.6 19.4999 36.7V36.8C19.4999 37.2 19.4999 37.6 19.4999 38C19.4999 38.5 19.4999 39 19.5999 39.5C19.5999 39.8 19.5999 40 19.6999 40.3C19.6999 40.6 19.6999 40.8 19.7999 41.1C19.8999 42.1 20.0999 43.1 20.3999 44.1V44.2C22.4999 52.4 28.8999 58.7 38.3999 58.9C31.2999 60.7 21.6999 61.5 10.2999 58.6C9.7999 58.5 9.2999 58.3 8.7999 58.2C8.2999 58.1 7.7999 57.9 7.2999 57.8C6.7999 57.6 6.2999 57.5 5.7999 57.3L5.19992 57.1C4.09992 55.2 3.1999 53.2 2.3999 51.1C2.1999 50.6 1.9999 50.1 1.8999 49.5C1.7999 49 1.59991 48.5 1.49991 47.9C1.39991 47.7 1.3999 47.4 1.2999 47.1C1.1999 46.6 1.09991 46.1 0.999908 45.6C0.899908 45.1 0.799921 44.5 0.699921 43.9C0.699921 43.8 0.699921 43.7 0.699921 43.6C0.599921 43.3 0.599915 42.9 0.599915 42.6C0.599915 42.4 0.499908 42.1 0.499908 41.9C0.499908 41.4 0.399902 41 0.399902 40.5C0.399902 40.2 0.399902 39.9 0.399902 39.6C0.399902 39.1 0.399902 38.6 0.399902 38.1V38C0.399902 37.4 0.399902 36.8 0.399902 36.2C0.399902 35.6 0.499908 34.9 0.499908 34.3C2.09991 18 13.5999 4.80002 31.1999 1.60002C31.4999 1.50002 31.7999 1.50001 32.0999 1.50001C32.4999 1.40001 32.8999 1.4 33.2999 1.3C33.4999 1.3 33.6999 1.20002 33.8999 1.20002C33.9999 1.20002 34.0999 1.20002 34.1999 1.20002C34.5999 1.20002 35.0999 1.10002 35.4999 1.10002C36.8999 1.00002 38.1999 0.900003 39.5999 0.900003C52.3999 0.700003 62.8999 5.60003 69.7999 13.4Z" fill="#FFCE39"/>
</svg>
