<?xml version="1.0" standalone="no"?>
<!DOCTYPE svg PUBLIC "-//W3C//DTD SVG 20010904//EN"
 "http://www.w3.org/TR/2001/REC-SVG-20010904/DTD/svg10.dtd">
<svg version="1.0" xmlns="http://www.w3.org/2000/svg"
 width="768.000000pt" height="768.000000pt" viewBox="0 0 768.000000 768.000000"
 preserveAspectRatio="xMidYMid meet">

<g transform="translate(0.000000,768.000000) scale(0.100000,-0.100000)"
fill="#000000" stroke="none">
<path d="M3235 6952 c-6 -4 -23 -41 -37 -82 -14 -41 -29 -84 -34 -94 -5 -13
-4 -17 4 -12 14 9 37 57 53 115 14 46 16 47 67 55 45 6 53 16 14 16 -16 0 -36
2 -44 5 -7 3 -18 1 -23 -3z"/>
<path d="M3885 6950 c-275 -3 -495 -8 -490 -12 6 -3 228 -6 493 -6 361 0 490
-3 513 -12 25 -11 32 -10 50 6 46 42 83 -33 54 -110 -10 -25 -22 -46 -27 -46
-5 0 -6 -4 -3 -10 3 -5 -1 -10 -10 -10 -12 0 -15 -7 -13 -24 1 -13 -4 -32 -13
-43 -9 -10 -19 -31 -21 -48 -8 -49 -30 -128 -45 -163 -8 -19 -12 -36 -9 -39 3
-3 8 2 12 11 3 9 17 16 30 16 20 0 29 -9 44 -46 25 -57 25 -71 1 -84 -23 -12
-41 3 -61 49 -12 29 -40 44 -40 21 0 -5 -6 -10 -14 -10 -16 0 -26 -30 -26 -82
0 -20 -4 -39 -9 -42 -4 -3 -11 -19 -15 -36 -3 -17 -17 -45 -30 -63 -13 -18
-27 -47 -29 -66 -3 -19 -10 -37 -15 -40 -5 -3 -12 -22 -15 -41 -9 -57 -48
-160 -60 -157 -7 1 -14 -24 -19 -62 -5 -37 -21 -89 -38 -120 -15 -31 -31 -68
-34 -82 -3 -14 -17 -31 -30 -39 -20 -10 -24 -18 -20 -40 3 -14 0 -46 -7 -71
-7 -24 -13 -49 -14 -56 0 -6 -4 -15 -8 -19 -4 -4 -7 -14 -7 -23 0 -24 -42
-105 -62 -119 -10 -7 -18 -25 -18 -39 0 -40 -30 -144 -46 -160 -8 -8 -14 -25
-14 -38 0 -13 -5 -27 -11 -30 -6 -4 -8 -13 -5 -21 3 -8 2 -14 -2 -14 -5 0 -19
-35 -32 -77 -12 -43 -28 -89 -35 -103 -12 -24 -29 -70 -63 -170 -9 -25 -18
-47 -22 -50 -10 -8 -22 -42 -26 -73 -2 -16 -13 -41 -24 -56 -10 -16 -17 -31
-13 -35 3 -3 1 -6 -5 -6 -7 0 -12 -11 -12 -23 0 -27 -30 -119 -55 -166 -9 -18
-14 -40 -12 -49 4 -19 43 60 72 148 10 30 24 69 32 87 7 17 13 37 13 45 0 8 4
18 9 24 4 5 16 32 26 59 9 28 21 59 25 70 5 11 27 72 50 135 23 63 46 129 52
145 6 17 15 35 18 40 4 6 10 27 14 48 4 20 11 37 15 37 5 0 12 16 16 36 3 20
10 44 15 53 10 21 27 61 34 85 13 40 38 -12 127 -265 49 -140 100 -283 114
-319 13 -36 85 -238 160 -450 75 -212 143 -403 152 -425 8 -22 44 -121 78
-220 56 -158 128 -359 317 -890 27 -77 55 -155 61 -173 6 -19 19 -35 31 -38
12 -2 98 -3 191 -2 l170 3 3 32 c6 58 53 68 67 15 13 -52 13 -52 241 -52 127
0 215 4 219 10 3 5 -4 32 -16 60 -18 41 -19 53 -9 65 7 9 22 15 34 13 27 -4
56 -90 39 -118 -7 -10 -9 -21 -6 -24 4 -3 89 -6 190 -6 139 0 185 3 188 13 3
7 -15 68 -41 137 -25 69 -67 186 -94 260 -26 74 -82 227 -123 340 -41 113 -96
264 -122 335 -26 72 -74 204 -107 295 -34 91 -82 226 -109 300 -45 126 -68
192 -156 430 -19 52 -47 131 -63 175 -15 44 -74 206 -130 360 -56 154 -123
341 -150 415 -27 74 -81 223 -120 330 -66 180 -147 405 -190 525 -80 223 -224
617 -237 648 -9 20 -21 37 -27 37 -89 5 -276 4 -691 0z m658 -794 c21 -57 17
-76 -17 -76 -19 0 -27 9 -40 40 -26 65 -20 94 18 88 14 -2 26 -18 39 -52z m89
-250 c15 -38 16 -51 7 -63 -23 -27 -52 -11 -67 39 -18 55 -11 81 20 76 17 -2
27 -16 40 -52z m72 -208 c8 -13 18 -42 22 -64 6 -37 4 -43 -16 -49 -27 -9 -33
-2 -52 56 -23 68 11 110 46 57z m-484 -101 c22 -58 17 -79 -18 -75 -21 2 -29
12 -41 50 -16 54 -10 81 20 76 15 -2 27 -17 39 -51z m584 -170 c22 -57 20 -84
-4 -92 -28 -9 -36 -1 -55 55 -13 40 -14 54 -5 65 23 28 46 17 64 -28z m-505
-52 c8 -16 15 -45 15 -65 1 -31 -2 -35 -23 -35 -20 0 -27 9 -44 54 -20 52 -20
54 -2 67 25 19 37 14 54 -21z m596 -199 c22 -56 17 -80 -16 -84 -24 -3 -28 2
-43 49 -20 60 -16 79 18 79 20 0 28 -9 41 -44z m-507 -49 c7 -15 16 -43 19
-61 4 -28 2 -35 -16 -41 -29 -9 -37 -1 -56 55 -14 41 -14 54 -4 66 17 21 42
13 57 -19z m574 -161 c19 -19 42 -91 35 -110 -8 -19 -40 -21 -55 -3 -5 6 -16
31 -22 54 -11 34 -10 45 0 58 15 19 25 19 42 1z m-476 -111 c16 -51 17 -57 2
-72 -25 -24 -44 -10 -63 47 -13 40 -14 54 -5 65 26 31 48 17 66 -40z m579
-158 c27 -66 28 -84 5 -97 -29 -15 -44 -1 -60 55 -10 36 -10 48 0 60 20 24 40
18 55 -18z m-490 -87 c20 -59 15 -80 -19 -80 -20 0 -27 8 -41 50 -20 59 -15
80 19 80 20 0 27 -8 41 -50z m586 -182 c20 -50 17 -73 -8 -82 -23 -9 -39 9
-53 59 -15 53 -8 78 21 73 15 -2 27 -17 40 -50z m-496 -69 c13 -39 14 -53 5
-64 -21 -25 -40 -17 -60 28 -24 52 -25 73 -3 85 27 16 41 4 58 -49z m583 -181
c17 -53 11 -78 -18 -78 -31 0 -66 101 -43 124 4 4 16 6 27 4 14 -2 24 -17 34
-50z m-495 -65 c16 -43 17 -56 7 -68 -24 -29 -47 -18 -64 32 -19 56 -20 80 -3
86 27 12 41 0 60 -50z m579 -164 c24 -48 23 -86 -2 -94 -29 -9 -36 -1 -56 57
-16 49 -16 52 2 65 25 18 36 13 56 -28z m-501 -56 c22 -58 23 -90 1 -102 -15
-8 -23 -7 -30 2 -16 19 -35 94 -29 111 10 26 46 19 58 -11z m577 -165 c5 -7
16 -32 23 -56 11 -37 10 -45 -4 -59 -24 -24 -43 -10 -62 47 -13 40 -14 54 -5
65 15 18 34 19 48 3z m-487 -85 c6 -16 12 -44 13 -63 1 -31 -2 -35 -24 -35
-20 0 -27 8 -42 49 -13 37 -14 53 -6 63 18 22 48 15 59 -14z m594 -203 c20
-59 15 -80 -19 -80 -19 0 -27 9 -40 40 -26 66 -21 90 20 90 18 0 26 -10 39
-50z m-506 -45 c8 -16 15 -45 15 -65 1 -31 -2 -35 -24 -35 -21 0 -28 8 -44 54
-19 53 -19 54 -1 67 25 19 37 14 54 -21z m595 -203 c21 -59 17 -82 -17 -82
-19 0 -28 9 -41 43 -21 54 -20 74 2 86 27 16 36 8 56 -47z m-516 -24 c5 -7 16
-32 23 -56 11 -37 10 -45 -4 -59 -24 -24 -43 -10 -62 47 -13 40 -14 54 -5 65
15 18 34 19 48 3z m604 -227 c20 -52 20 -55 2 -68 -29 -21 -40 -16 -58 30 -26
69 -19 99 23 94 7 -1 22 -26 33 -56z m-515 -23 c5 -7 16 -33 23 -57 13 -40 12
-45 -4 -56 -28 -21 -44 -8 -63 52 -15 47 -15 56 -3 64 21 12 36 11 47 -3z
m594 -195 c6 -16 13 -44 16 -64 7 -45 -22 -63 -49 -30 -18 23 -33 94 -23 111
13 20 45 10 56 -17z m-486 -95 c17 -54 10 -78 -26 -78 -13 0 -23 15 -36 56
-17 54 -17 57 1 69 27 20 43 9 61 -47z"/>
<path d="M3126 6670 c-10 -32 -16 -65 -13 -72 3 -8 6 -5 6 6 1 11 8 27 16 36
16 18 30 90 17 90 -4 0 -15 -27 -26 -60z"/>
<path d="M3077 6533 c-8 -15 -17 -41 -21 -57 -4 -15 -15 -47 -25 -70 -26 -60
-51 -141 -51 -162 1 -18 1 -18 15 0 8 11 15 28 15 38 0 10 4 26 8 36 44 88 52
110 52 129 0 13 7 41 16 63 19 47 12 65 -9 23z"/>
<path d="M2950 6174 c0 -8 5 -12 10 -9 6 4 8 11 5 16 -9 14 -15 11 -15 -7z"/>
<path d="M2931 6124 c0 -11 -4 -24 -8 -28 -7 -7 -17 -32 -52 -136 -12 -36 -26
-74 -31 -85 -42 -104 -93 -256 -87 -261 10 -10 35 47 72 161 21 66 41 125 45
130 4 6 10 27 14 48 4 20 11 37 16 37 13 0 42 104 37 131 -4 21 -4 21 -6 3z"/>
<path d="M2906 5962 c-2 -4 -1 -14 5 -22 7 -12 9 -10 9 8 0 23 -5 28 -14 14z"/>
<path d="M2721 5554 c-17 -46 -8 -55 13 -13 18 36 20 49 8 49 -4 0 -14 -16
-21 -36z"/>
<path d="M2693 5472 c-23 -57 -54 -155 -49 -159 7 -7 46 59 46 78 0 9 7 33 16
54 8 21 12 41 7 46 -5 5 -13 -4 -20 -19z"/>
<path d="M2706 5333 c-11 -11 -6 -23 9 -23 8 0 15 4 15 9 0 13 -16 22 -24 14z"/>
<path d="M2670 5301 c0 -12 5 -21 10 -21 6 0 10 6 10 14 0 8 -4 18 -10 21 -5
3 -10 -3 -10 -14z"/>
<path d="M2617 5262 c-9 -21 -17 -43 -17 -49 0 -5 -7 -24 -16 -42 -8 -17 -14
-36 -12 -42 6 -17 53 90 62 139 7 42 4 40 -17 -6z"/>
<path d="M2547 5073 c-5 -27 -2 -41 7 -32 11 10 17 59 8 59 -5 0 -12 -12 -15
-27z"/>
<path d="M2506 4951 c-11 -23 -16 -44 -13 -47 7 -7 39 66 34 79 -1 5 -11 -9
-21 -32z"/>
<path d="M2474 4863 c-4 -15 -13 -38 -20 -52 -8 -14 -14 -32 -14 -39 0 -7 -5
-22 -12 -35 -23 -45 -27 -55 -33 -91 -4 -20 -11 -39 -16 -42 -5 -3 -9 -13 -9
-22 0 -9 -7 -30 -15 -46 -8 -15 -15 -36 -15 -45 0 -9 -5 -22 -11 -28 -6 -6 -9
-17 -7 -25 6 -18 49 77 82 184 15 48 34 92 43 99 10 9 13 22 9 41 -5 27 8 40
17 16 2 -7 8 -9 13 -5 5 4 2 12 -6 17 -13 8 -12 13 3 39 9 16 17 36 17 45 0
26 -19 18 -26 -11z"/>
<path d="M3903 4428 c-5 -7 -20 -38 -33 -68 -12 -30 -44 -101 -71 -159 -27
-57 -49 -110 -49 -117 0 -11 30 -14 149 -14 83 0 152 3 154 8 5 7 -123 345
-134 356 -3 4 -11 1 -16 -6z"/>
<path d="M2311 4412 c0 -7 -10 -31 -20 -53 -11 -22 -23 -54 -26 -72 -4 -18
-10 -36 -14 -42 -4 -5 -13 -28 -20 -50 -7 -22 -19 -53 -26 -70 -20 -46 -47
-137 -42 -141 6 -6 47 91 47 109 0 8 9 25 19 39 11 13 23 38 27 54 12 52 36
128 51 162 8 18 12 43 10 55 -2 12 -5 16 -6 9z"/>
<path d="M3531 4354 c0 -11 3 -14 6 -6 3 7 2 16 -1 19 -3 4 -6 -2 -5 -13z"/>
<path d="M3487 4073 c-4 -3 -7 -16 -6 -27 0 -19 1 -19 10 3 10 24 8 36 -4 24z"/>
<path d="M3458 4006 c-10 -7 -18 -18 -18 -24 0 -6 -6 -31 -14 -54 -8 -24 -17
-59 -20 -78 -6 -32 -5 -33 8 -15 9 11 16 26 16 33 0 8 6 28 14 45 13 28 37
108 33 107 -1 0 -10 -7 -19 -14z"/>
<path d="M2141 3947 c-1 -10 -7 -30 -15 -45 -18 -36 -29 -85 -18 -78 13 8 45
113 39 128 -3 8 -6 6 -6 -5z"/>
<path d="M2068 3745 c-45 -132 -69 -197 -78 -213 -11 -20 -40 -108 -40 -123 0
-27 20 8 40 71 14 43 30 75 42 81 13 7 17 16 13 30 -4 11 0 30 9 44 9 13 13
31 10 39 -3 8 2 30 11 50 9 19 15 43 13 53 -2 11 -10 -1 -20 -32z"/>
<path d="M3400 3747 c0 -4 6 -7 13 -6 6 1 164 1 350 0 294 -1 337 -3 337 -16
0 -9 11 -33 25 -55 14 -22 25 -48 25 -57 0 -22 39 -108 45 -101 4 4 -69 225
-77 234 -8 7 -718 8 -718 1z"/>
<path d="M2071 3604 c0 -11 3 -14 6 -6 3 7 2 16 -1 19 -3 4 -6 -2 -5 -13z"/>
<path d="M4207 3465 c9 -57 28 -108 41 -113 12 -4 10 9 -8 53 -4 11 -15 38
-24 60 l-16 40 7 -40z"/>
<path d="M1936 3375 c-20 -53 -39 -102 -49 -122 -6 -13 -7 -26 -4 -29 7 -7 47
79 47 100 0 7 5 17 11 23 6 6 9 19 6 29 -4 18 -4 18 -11 -1z"/>
<path d="M4160 3370 c0 -5 5 -10 11 -10 5 0 7 5 4 10 -3 6 -8 10 -11 10 -2 0
-4 -4 -4 -10z"/>
<path d="M4271 3294 c-1 -24 22 -100 50 -161 10 -24 19 -51 19 -61 0 -10 7
-27 15 -38 8 -10 15 -29 15 -42 l0 -23 -630 3 c-499 2 -630 0 -630 -9 0 -10
136 -13 645 -13 402 0 645 4 645 10 0 5 -5 22 -11 37 -6 15 -15 37 -19 48 -29
75 -43 112 -50 125 -4 9 -11 31 -15 50 -4 19 -11 40 -15 45 -4 6 -10 19 -13
30 -5 19 -5 19 -6 -1z"/>
<path d="M1847 3138 c-26 -76 -97 -270 -107 -293 -5 -11 -12 -31 -15 -44 -12
-39 12 -15 25 27 7 20 18 42 24 47 7 6 13 17 13 26 0 24 36 119 45 119 4 0 8
10 8 23 0 12 6 34 14 48 17 33 30 99 19 99 -5 0 -16 -24 -26 -52z"/>
<path d="M3052 2930 c-6 -11 -12 -28 -12 -37 0 -28 -39 -146 -54 -163 -15 -17
-36 -89 -42 -140 -1 -19 -1 -26 2 -15 3 11 10 24 15 30 5 5 9 15 9 23 0 8 6
28 14 45 8 18 22 55 31 82 24 70 29 84 54 138 25 56 25 57 8 57 -7 0 -18 -9
-25 -20z"/>
<path d="M1687 2703 c-18 -52 -23 -93 -8 -77 10 11 35 82 37 107 2 32 -12 17
-29 -30z"/>
<path d="M3323 2628 c-13 -19 -28 -56 -49 -123 -10 -33 -27 -80 -37 -105 -11
-25 -23 -58 -27 -75 -4 -16 -27 -82 -50 -145 -23 -63 -48 -133 -55 -155 -7
-22 -16 -48 -20 -57 -6 -16 43 -17 834 -18 712 0 841 2 841 14 0 22 -26 40
-33 22 -5 -12 -126 -13 -809 -11 l-803 2 3 29 c2 16 10 39 18 51 8 12 14 28
14 34 0 12 37 111 65 174 19 44 29 79 26 89 -1 6 2 19 7 30 17 35 32 80 37
106 5 25 10 39 35 92 7 14 23 29 36 32 13 4 24 11 24 16 0 14 -46 12 -57 -2z"/>
<path d="M3865 2630 c-108 -4 -31 -6 238 -8 384 -2 397 -3 397 -21 0 -11 5
-21 10 -23 6 -2 24 -43 40 -90 16 -48 34 -95 39 -105 28 -56 41 -97 36 -114
-4 -10 -3 -19 2 -19 11 0 33 -78 30 -105 -1 -11 5 -21 16 -23 12 -3 17 3 17
22 0 14 -4 27 -9 30 -5 3 -12 21 -15 40 -4 20 -13 48 -21 63 -8 15 -15 36 -15
45 0 9 -4 20 -10 23 -5 3 -10 16 -10 29 0 12 -4 26 -9 31 -4 6 -16 35 -26 65
-10 30 -24 69 -32 87 -7 17 -13 38 -13 46 0 9 -6 19 -12 24 -15 9 -412 11
-653 3z"/>
<path d="M3468 2623 c7 -3 16 -2 19 1 4 3 -2 6 -13 5 -11 0 -14 -3 -6 -6z"/>
<path d="M3568 2623 c7 -3 16 -2 19 1 4 3 -2 6 -13 5 -11 0 -14 -3 -6 -6z"/>
<path d="M3633 2623 c15 -2 37 -2 50 0 12 2 0 4 -28 4 -27 0 -38 -2 -22 -4z"/>
<path d="M1632 2549 c-7 -10 -12 -27 -12 -37 0 -10 -8 -36 -19 -58 -33 -70
-35 -84 -11 -84 11 0 20 6 19 13 -4 17 20 118 30 131 14 18 21 45 13 50 -5 3
-13 -4 -20 -15z"/>
<path d="M2903 2500 c-3 -17 -10 -33 -14 -36 -5 -3 -9 -17 -8 -32 l0 -27 11
25 c6 14 17 39 24 57 17 37 17 43 4 43 -6 0 -13 -14 -17 -30z"/>
<path d="M2807 2392 c-40 -2 -65 -7 -62 -12 8 -14 122 -13 130 1 9 14 9 14
-68 11z"/>
<path d="M1645 2380 c7 -12 315 -11 315 1 0 3 -72 7 -161 8 -118 2 -159 -1
-154 -9z"/>
<path d="M1984 2383 c9 -10 594 -12 681 -3 42 4 -84 8 -309 9 -209 0 -376 -2
-372 -6z"/>
<path d="M4690 2090 c0 -5 -8 -7 -17 -4 -10 3 -6 -3 10 -12 15 -10 27 -25 27
-33 0 -8 3 -12 6 -8 9 8 -6 67 -17 67 -5 0 -9 -4 -9 -10z"/>
<path d="M4510 2003 c0 -5 16 -9 36 -11 21 -1 33 2 29 8 -7 12 -65 14 -65 3z"/>
<path d="M4448 1993 c7 -3 16 -2 19 1 4 3 -2 6 -13 5 -11 0 -14 -3 -6 -6z"/>
<path d="M1455 1470 c-27 -11 -61 -49 -74 -83 -7 -17 -11 -127 -11 -283 0
-231 2 -258 19 -292 53 -103 212 -102 269 1 15 28 17 64 17 297 0 247 -1 267
-20 299 -11 18 -36 42 -55 52 -36 20 -109 24 -145 9z m109 -112 c13 -19 16
-60 16 -245 0 -122 -4 -233 -10 -247 -13 -36 -56 -45 -83 -17 -21 21 -22 29
-22 260 0 260 2 271 56 271 17 0 34 -8 43 -22z"/>
<path d="M2225 1473 c-11 -3 -31 -15 -44 -26 -47 -43 -51 -69 -51 -342 0 -236
2 -259 20 -295 26 -51 70 -74 138 -73 61 0 95 20 127 74 19 32 20 52 20 299 0
248 -1 267 -20 300 -34 57 -109 82 -190 63z m99 -115 c13 -19 16 -61 16 -255
0 -220 -1 -234 -20 -253 -25 -25 -41 -25 -69 -2 -21 16 -22 24 -22 260 -1 176
3 247 11 257 19 23 66 19 84 -7z"/>
<path d="M3233 1464 c-46 -23 -73 -84 -73 -165 1 -84 23 -132 103 -217 79 -84
97 -117 97 -176 0 -38 -4 -48 -26 -63 -24 -15 -29 -15 -53 -2 -21 12 -27 24
-31 64 l-5 50 -45 0 -45 0 3 -58 c5 -106 55 -161 149 -161 91 0 145 56 151
160 6 90 -15 139 -100 232 -82 92 -101 123 -102 178 -1 49 17 74 54 74 34 0
47 -15 58 -66 8 -37 9 -39 47 -39 l40 0 -1 50 c0 63 -19 103 -63 132 -41 28
-110 30 -158 7z"/>
<path d="M4400 1462 c-19 -9 -43 -33 -55 -52 -18 -32 -20 -55 -23 -268 -4
-263 4 -325 46 -365 74 -70 205 -49 248 41 16 33 17 66 16 291 -2 285 -7 305
-71 348 -42 28 -111 30 -161 5z m116 -96 c18 -13 19 -30 22 -228 2 -117 1
-227 -3 -245 -11 -61 -57 -81 -95 -43 -19 19 -20 33 -20 253 0 194 3 236 16
255 17 25 51 29 80 8z"/>
<path d="M6990 1462 c-49 -24 -69 -70 -70 -160 0 -90 19 -133 100 -217 95
-100 126 -189 80 -235 -25 -25 -41 -25 -70 -2 -21 17 -24 27 -29 105 -1 5 -20
7 -43 5 l-43 -3 1 -57 c2 -103 55 -161 149 -161 100 0 150 60 150 178 -1 88
-17 122 -103 218 -75 83 -107 145 -98 190 8 41 24 57 55 57 35 0 51 -17 51
-55 0 -17 5 -36 12 -43 14 -14 57 -16 76 -3 18 11 6 100 -19 141 -35 57 -130
77 -199 42z"/>
<path d="M620 1450 c0 -42 91 -665 100 -687 9 -21 17 -23 74 -23 36 0 67 4 70
8 6 10 39 224 67 437 11 83 24 177 29 209 5 32 7 63 4 67 -5 9 -84 13 -84 5 0
-3 -13 -105 -30 -228 -16 -122 -30 -235 -30 -250 0 -14 -5 -39 -11 -55 -10
-26 -12 -26 -19 -8 -6 17 -30 186 -69 490 l-6 50 -47 3 c-43 3 -48 1 -48 -18z"/>
<path d="M1000 1425 c0 -48 4 -51 75 -57 l30 -3 5 -310 5 -310 45 0 45 0 3
313 2 312 43 0 c58 0 69 10 65 56 l-3 39 -157 3 -158 3 0 -46z"/>
<path d="M1730 1453 c0 -10 26 -108 56 -218 53 -188 57 -209 63 -345 l6 -145
45 0 45 0 6 135 c6 140 5 137 114 524 8 27 12 53 9 58 -3 4 -23 8 -44 8 -45 0
-37 17 -85 -188 -17 -69 -31 -112 -38 -109 -6 2 -27 68 -47 148 l-36 144 -47
3 c-40 3 -47 0 -47 -15z"/>
<path d="M2516 1453 c-8 -27 3 -75 21 -88 12 -9 13 -18 4 -50 -10 -39 -3 -63
17 -51 19 11 53 123 50 162 -3 38 -4 39 -45 42 -33 2 -42 -1 -47 -15z"/>
<path d="M2695 1457 c-3 -6 -4 -170 -3 -362 l3 -350 132 -3 132 -3 7 26 c3 14
3 36 0 50 -6 23 -10 24 -89 27 l-82 3 -3 313 -2 312 -45 0 c-27 0 -48 -5 -50
-13z"/>
<path d="M3605 1448 c-2 -13 -18 -120 -35 -238 -17 -118 -39 -267 -49 -330 -9
-64 -16 -121 -13 -128 4 -14 68 -16 77 -3 3 5 10 33 15 62 6 29 16 57 23 61
19 12 104 9 115 -4 5 -7 13 -35 17 -63 4 -27 13 -53 19 -57 16 -11 74 -10 81
1 6 10 -90 696 -100 711 -4 6 -37 10 -75 10 -64 0 -70 -2 -75 -22z m105 -313
c11 -81 17 -152 14 -156 -8 -14 -92 -11 -96 3 -4 11 18 177 37 287 11 60 25
19 45 -134z"/>
<path d="M3922 1108 l3 -363 36 -3 c31 -3 37 1 43 20 3 13 6 122 6 243 0 160
3 216 11 208 6 -6 37 -114 68 -240 l56 -228 38 -3 c69 -6 67 -18 67 362 0 187
-4 347 -9 354 -5 8 -22 12 -42 10 l-34 -3 -3 -187 c-1 -115 -6 -188 -12 -188
-11 0 -13 8 -69 230 l-36 145 -63 3 -62 3 2 -363z"/>
<path d="M4786 1438 c-3 -18 -10 -60 -16 -93 -21 -131 -80 -554 -80 -579 0
-23 4 -26 34 -26 42 0 52 12 60 74 3 28 12 53 19 58 19 12 104 9 115 -4 5 -7
14 -38 19 -68 l8 -55 43 -3 c28 -2 44 1 47 10 6 14 -91 693 -100 709 -4 5 -37
9 -75 9 l-69 0 -5 -32z m88 -170 c16 -88 36 -279 31 -288 -3 -6 -26 -10 -51
-10 -41 0 -44 2 -44 28 0 26 27 235 36 280 6 32 21 27 28 -10z"/>
<path d="M5077 1463 c-4 -3 -7 -23 -7 -44 0 -42 11 -49 71 -49 l39 0 2 -312 3
-313 45 0 45 0 5 310 5 310 50 5 50 5 3 48 3 47 -154 0 c-84 0 -157 -3 -160
-7z"/>
<path d="M5598 1114 c-2 -265 0 -358 9 -366 6 -5 27 -8 45 -6 l33 3 3 363 2
362 -45 0 -45 0 -2 -356z"/>
<path d="M5782 1108 l3 -363 35 0 35 0 6 235 c3 129 7 237 7 240 8 21 29 -48
76 -237 30 -123 57 -227 61 -233 8 -13 82 -13 90 0 4 7 9 577 5 708 0 7 -15
12 -40 12 l-40 0 -2 -187 c-3 -187 -12 -228 -33 -146 -5 21 -25 103 -45 183
l-35 145 -63 3 -62 3 2 -363z"/>
<path d="M6167 1463 c-2 -5 4 -64 14 -133 10 -69 32 -226 49 -350 18 -123 34
-228 36 -232 9 -13 131 -9 142 5 9 10 80 486 99 665 l6 52 -41 0 c-49 0 -44
15 -72 -200 -30 -236 -41 -313 -47 -334 -13 -45 -23 13 -88 492 l-6 42 -44 0
c-24 0 -46 -3 -48 -7z"/>
<path d="M6575 1457 c-3 -6 -4 -170 -3 -362 l3 -350 133 -3 c127 -2 133 -2
140 19 5 12 6 34 4 50 l-4 29 -83 0 c-66 0 -84 3 -89 16 -3 9 -6 56 -6 104 0
103 5 109 79 102 56 -5 74 10 69 60 l-3 33 -67 3 c-80 3 -81 4 -76 127 l3 80
85 5 85 5 3 48 3 47 -136 0 c-100 0 -137 -3 -140 -13z"/>
<path d="M7262 1423 l3 -48 43 -1 c24 -1 47 -5 52 -10 6 -6 11 -144 12 -314
l3 -305 34 -3 c18 -2 38 1 42 5 5 5 10 141 10 302 0 161 3 299 6 307 3 9 20
14 48 14 51 0 68 16 63 62 l-3 33 -158 3 -158 3 3 -48z"/>
<path d="M345 1452 c-3 -3 -5 -15 -5 -26 0 -13 3 -16 8 -10 4 6 26 15 48 18
43 8 55 0 60 -34 1 -8 8 -58 15 -110 15 -118 30 -140 22 -34 -3 44 -9 83 -14
89 -5 5 -9 28 -9 52 0 26 -5 45 -12 48 -24 7 -107 12 -113 7z"/>
<path d="M326 1305 c-4 -38 -12 -83 -16 -100 -15 -49 -24 -192 -12 -180 6 6
13 42 15 80 3 39 10 106 17 150 6 44 9 89 7 100 -2 11 -7 -11 -11 -50z"/>
<path d="M352 1274 c0 -25 3 -33 9 -23 11 18 12 59 0 59 -5 0 -9 -16 -9 -36z"/>
<path d="M432 1275 c0 -22 4 -53 8 -70 7 -26 8 -23 8 20 0 28 -3 59 -8 70 -7
15 -8 11 -8 -20z"/>
<path d="M452 1115 c0 -22 3 -51 7 -65 l7 -25 6 29 c3 16 0 45 -7 65 l-14 36
1 -40z"/>
<path d="M500 1115 c0 -16 5 -37 10 -45 7 -12 10 -8 10 15 0 17 -5 37 -10 45
-7 12 -10 8 -10 -15z"/>
<path d="M330 1100 c-9 -61 -8 -114 2 -97 5 9 7 41 5 70 -2 28 -5 41 -7 27z"/>
<path d="M520 965 c0 -8 5 -15 10 -15 6 0 10 7 10 15 0 8 -4 15 -10 15 -5 0
-10 -7 -10 -15z"/>
<path d="M273 935 c0 -22 2 -30 4 -17 2 12 2 30 0 40 -3 9 -5 -1 -4 -23z"/>
<path d="M460 960 c-8 -6 -30 -10 -49 -10 -25 0 -32 -4 -27 -15 4 -11 -2 -15
-24 -15 -37 0 -70 -31 -70 -67 0 -39 -11 -73 -22 -73 -8 0 -4 47 9 93 2 9 0
17 -6 17 -5 0 -13 -17 -16 -37 -3 -21 -8 -50 -10 -65 -4 -25 -2 -28 24 -28 31
0 30 -1 46 93 l6 37 79 0 c73 0 97 9 70 25 -7 4 -6 13 1 26 13 25 9 31 -11 19z"/>
<path d="M494 830 c3 -14 6 -35 6 -47 0 -20 5 -23 36 -23 28 0 35 4 32 17 -2
11 -13 18 -28 18 -17 0 -26 6 -28 20 -2 11 -9 25 -14 30 -7 7 -9 2 -4 -15z"/>
</g>
</svg>
