<svg width="20" height="20" viewBox="0 0 20 20" fill="#000" xmlns="http://www.w3.org/2000/svg">
<path d="M9.72007 0C4.57022 0 0.390625 4.48 0.390625 10C0.390625 15.52 4.57022 20 9.72007 20C14.8699 20 19.0495 15.52 19.0495 10C19.0495 4.48 14.8699 0 9.72007 0ZM7.19179 14.29L3.84252 10.7C3.47867 10.31 3.47867 9.68 3.84252 9.29C4.20637 8.9 4.79412 8.9 5.15797 9.29L7.85418 12.17L14.2728 5.29C14.6367 4.9 15.2244 4.9 15.5883 5.29C15.9521 5.68 15.9521 6.31 15.5883 6.7L8.50724 14.29C8.15272 14.68 7.55564 14.68 7.19179 14.29Z" fill="#252A31"/>
</svg>
