<svg width="15" height="14" viewBox="0 0 15 14" fill="none" xmlns="http://www.w3.org/2000/svg">
<path d="M7.5026 0.666016L7.13802 1.02124L2.84896 5.04893H0.835938V13.9993H6.39062V11.6107C6.39062 10.945 6.88021 10.4164 7.5026 10.4164C8.125 10.4164 8.61458 10.9422 8.61458 11.6107V13.9966H14.1693V5.04613H12.1562L7.86719 1.01844L7.5026 0.666016ZM1.94792 2.06452C1.625 2.58476 0.835938 2.66588 0.835938 3.64763C0.835938 4.20143 1.20052 4.45037 1.20052 4.45037H2.69271C2.69271 4.45037 3.05729 4.20143 3.05729 3.64763C3.05729 2.61273 2.3125 2.57078 1.94792 2.06452ZM13.0573 2.06452C12.7344 2.58756 11.9453 2.95956 11.9453 3.65042C11.9453 4.20143 12.3099 4.45316 12.3099 4.45316H13.8047C13.8047 4.45316 14.1693 4.20423 14.1693 3.65042C14.1693 2.90642 13.4219 2.57078 13.0573 2.06452ZM7.5026 2.24912L11.5833 6.08941L11.7396 6.23765H13.0599V12.8022H9.72656V11.6107C9.72656 10.2989 8.72656 9.22486 7.50521 9.22486C6.28385 9.22486 5.28385 10.2989 5.28385 11.6107V12.805H1.95052V6.24045H3.27083L3.42708 6.09221L7.5026 2.24912ZM7.5026 4.73007L7.01562 5.62511H6.0599L6.52865 6.52015L6.0599 7.41519H7.01562L7.5026 8.32982L7.98958 7.41519H8.94531L8.47656 6.52015L8.94531 5.62511H7.98958L7.5026 4.73007Z" fill="#0E0E2C"/>
</svg>
