<svg width="19" height="20" viewBox="0 0 19 20" fill="none" xmlns="http://www.w3.org/2000/svg">
<path d="M9.5 0L12.4492 5.04297H18.25L15.3516 10L18.25 14.957H12.4531L9.5 20L6.54688 14.957H0.75L3.64844 10L0.75 5.04688H6.55078L9.5 0ZM5.71875 10.0039L7.58984 13.332H11.4102L13.2852 10.0039L11.4102 6.66797H7.59766L5.71875 10.0039ZM13.4766 13.332H15.1602L14.3203 11.8945L13.4766 13.332ZM3.83984 13.332H5.52344L4.67969 11.8945L3.83984 13.332ZM8.66406 5H10.3477L9.50391 3.5625L8.66406 5ZM14.3164 8.10547L15.1562 6.66797H13.4727L14.3164 8.10547ZM4.68359 8.10547L5.52734 6.66797H3.84375L4.68359 8.10547ZM9.50391 16.4375L10.3477 15H8.66406L9.50391 16.4375Z" fill="black"/>
</svg>
